<svg fill="none" height="31" viewBox="0 0 32 31" width="32" xmlns="http://www.w3.org/2000/svg">
    <g filter="url(#filter0_d_176_2573)">
        <path
            d="M20.9775 17.8835C23.8777 15.0618 23.8777 10.4867 20.9775 7.66493C18.0773 4.84314 13.3752 4.84314 10.475 7.66493C7.57475 10.4867 7.57475 15.0618 10.475 17.8835C13.3752 20.7053 18.0773 20.7053 20.9775 17.8835Z"
            fill="#E7BD8D" />
    </g>
    <path
        d="M13.7622 8.43161C13.5789 8.34755 13.4503 8.19377 13.3966 8.01641C13.5694 7.94362 13.7717 7.94054 13.9551 8.02461C14.1384 8.10867 14.267 8.26246 14.3207 8.43982C14.1479 8.51261 13.9456 8.51568 13.7622 8.43161Z"
        fill="#C58040" />
    <path
        d="M13.8192 7.65505C13.7338 7.83549 13.5768 7.96056 13.3967 8.01387C13.3229 7.84472 13.3197 7.64583 13.4051 7.46539C13.4904 7.28495 13.6474 7.15988 13.8276 7.10657C13.9014 7.27573 13.9045 7.47462 13.8192 7.65505Z"
        fill="#C58040" />
    <path
        d="M13.0341 8.79379C12.8382 8.74253 12.6854 8.61233 12.6011 8.44727C12.7581 8.34577 12.9572 8.30887 13.1532 8.36013C13.3492 8.41139 13.502 8.54159 13.5863 8.70665C13.4293 8.80814 13.2301 8.84505 13.0341 8.79379Z"
        fill="#C58040" />
    <path
        d="M12.9529 8.02031C12.9002 8.21305 12.7675 8.36273 12.5999 8.44577C12.4967 8.29097 12.4587 8.09618 12.5114 7.90446C12.5641 7.71173 12.6969 7.56205 12.8644 7.479C12.9677 7.63381 13.0056 7.8286 12.9529 8.02031Z"
        fill="#C58040" />
    <path
        d="M12.3819 9.27677C12.1796 9.25935 12.0068 9.15785 11.894 9.0092C12.031 8.8831 12.2196 8.81133 12.4219 8.82876C12.6243 8.84619 12.7971 8.94768 12.9098 9.09634C12.7728 9.22244 12.5842 9.2942 12.3819 9.27677Z"
        fill="#C58040" />
    <path
        d="M12.1637 8.53011C12.1458 8.72797 12.0425 8.89918 11.8918 9.00888C11.7633 8.87458 11.6906 8.68901 11.7085 8.49012C11.7264 8.29226 11.8297 8.12105 11.9804 8.01135C12.1089 8.14565 12.1816 8.33122 12.1637 8.53011Z"
        fill="#C58040" />
    <path
        d="M11.8236 9.86494C11.6212 9.88237 11.4326 9.81163 11.2957 9.6845C11.4084 9.53687 11.5812 9.43435 11.7835 9.41692C11.9858 9.39949 12.1744 9.47023 12.3114 9.59736C12.1987 9.74499 12.0259 9.84751 11.8236 9.86494Z"
        fill="#C58040" />
    <path
        d="M11.4768 9.16517C11.4947 9.36304 11.422 9.54962 11.2935 9.68393C11.1428 9.5732 11.0385 9.40302 11.0216 9.20516C11.0037 9.00729 11.0764 8.8207 11.205 8.6864C11.3556 8.79712 11.4599 8.96731 11.4768 9.16517Z"
        fill="#C58040" />
    <path
        d="M11.3755 10.5398C11.1795 10.591 10.9814 10.5541 10.8234 10.4526C10.9077 10.2876 11.0604 10.1574 11.2564 10.1061C11.4524 10.0548 11.6505 10.0917 11.8086 10.1932C11.7243 10.3583 11.5715 10.4885 11.3755 10.5398Z"
        fill="#C58040" />
    <path
        d="M10.9109 9.90959C10.9635 10.1023 10.9246 10.2971 10.8223 10.4509C10.6548 10.3679 10.522 10.2172 10.4694 10.0254C10.4167 9.8327 10.4557 9.63791 10.5579 9.48413C10.7254 9.56717 10.8582 9.71685 10.9109 9.90959Z"
        fill="#C58040" />
    <path
        d="M11.0543 11.2795C10.871 11.3636 10.6687 11.3605 10.4958 11.2877C10.5496 11.1114 10.6771 10.9566 10.8615 10.8725C11.0459 10.7884 11.2471 10.7915 11.4199 10.8643C11.3662 11.0406 11.2387 11.1954 11.0543 11.2795Z"
        fill="#C58040" />
    <path
        d="M10.4853 10.7385C10.5707 10.9189 10.5675 11.1178 10.4938 11.2869C10.3136 11.2336 10.1566 11.1086 10.0712 10.9281C9.98587 10.7477 9.98903 10.5488 10.0628 10.3796C10.243 10.4329 10.4 10.558 10.4853 10.7385Z"
        fill="#C58040" />
    <path
        d="M10.8677 12.0654C10.7012 12.1792 10.5021 12.211 10.3187 12.169C10.3409 11.9854 10.4388 11.8122 10.6053 11.6974C10.7718 11.5836 10.971 11.5518 11.1543 11.5938C11.1322 11.7773 11.0342 11.9506 10.8677 12.0654Z"
        fill="#C58040" />
    <path
        d="M10.2113 11.6304C10.3272 11.7934 10.3599 11.9892 10.3167 12.1697C10.1302 12.1481 9.95318 12.0518 9.83728 11.8887C9.72137 11.7257 9.68871 11.5299 9.73191 11.3495C9.91841 11.371 10.0954 11.4674 10.2113 11.6304Z"
        fill="#C58040" />
    <path
        d="M10.8213 12.8711C10.678 13.0115 10.4862 13.0772 10.2987 13.0669C10.2882 12.8824 10.3545 12.6948 10.4978 12.5543C10.6411 12.4139 10.8329 12.3482 11.0205 12.3595C11.031 12.5441 10.9646 12.7317 10.8213 12.8721V12.8711Z"
        fill="#C58040" />
    <path
        d="M10.0985 12.5536C10.2418 12.694 10.3082 12.8816 10.2977 13.0662C10.1101 13.0764 9.91836 13.0118 9.77506 12.8703C9.63176 12.7299 9.56537 12.5423 9.57591 12.3577C9.76347 12.3475 9.95524 12.4121 10.0985 12.5525V12.5536Z"
        fill="#C58040" />
    <path
        d="M10.9183 13.6658C10.8024 13.8289 10.6254 13.9252 10.4389 13.9468C10.3957 13.7673 10.4273 13.5705 10.5442 13.4075C10.6602 13.2445 10.8372 13.1481 11.0237 13.1266C11.0669 13.306 11.0353 13.5028 10.9183 13.6658Z"
        fill="#C58040" />
    <path
        d="M10.1502 13.4778C10.3167 13.5916 10.4146 13.7659 10.4368 13.9494C10.2534 13.9914 10.0543 13.9607 9.8878 13.8459C9.72132 13.7321 9.62332 13.5578 9.6012 13.3743C9.78454 13.3322 9.98369 13.363 10.1502 13.4778Z"
        fill="#C58040" />
    <path
        d="M11.1555 14.4323C11.0701 14.6127 10.9131 14.7378 10.733 14.7911C10.6592 14.6219 10.656 14.423 10.7414 14.2426C10.8267 14.0622 10.9837 13.9371 11.1639 13.8838C11.2377 14.0529 11.2408 14.2518 11.1555 14.4323Z"
        fill="#C58040" />
    <path
        d="M10.3652 14.3767C10.5486 14.4607 10.6771 14.6145 10.7309 14.7919C10.558 14.8647 10.3557 14.8677 10.1724 14.7837C9.98905 14.6996 9.8605 14.5458 9.80676 14.3685C9.97957 14.2957 10.1819 14.2926 10.3652 14.3767Z"
        fill="#C58040" />
    <path
        d="M11.5242 15.1468C11.4715 15.3395 11.3388 15.4892 11.1712 15.5722C11.068 15.4174 11.03 15.2226 11.0827 15.0309C11.1354 14.8382 11.2682 14.6885 11.4357 14.6055C11.539 14.7603 11.5769 14.9551 11.5242 15.1468Z"
        fill="#C58040" />
    <path
        d="M10.7371 15.2274C10.9331 15.2787 11.0858 15.4089 11.1701 15.574C11.0131 15.6755 10.814 15.7124 10.618 15.6611C10.422 15.6098 10.2692 15.4796 10.1849 15.3146C10.3419 15.2131 10.5411 15.1762 10.7371 15.2274Z"
        fill="#C58040" />
    <path
        d="M12.0161 15.7884C11.9982 15.9863 11.8949 16.1575 11.7443 16.2672C11.6157 16.1329 11.543 15.9473 11.5609 15.7484C11.5788 15.5506 11.6821 15.3794 11.8328 15.2697C11.9613 15.404 12.034 15.5895 12.0161 15.7884Z"
        fill="#C58040" />
    <path
        d="M11.2543 16.0016C11.4567 16.019 11.6295 16.1205 11.7422 16.2692C11.6052 16.3953 11.4166 16.4671 11.2143 16.4496C11.012 16.4322 10.8392 16.3307 10.7264 16.182C10.8634 16.0559 11.052 15.9842 11.2543 16.0016Z"
        fill="#C58040" />
    <path
        d="M12.6147 16.3381C12.6327 16.536 12.56 16.7226 12.4314 16.8569C12.2807 16.7462 12.1764 16.576 12.1596 16.3781C12.1416 16.1803 12.2143 15.9937 12.3429 15.8594C12.4936 15.9701 12.5979 16.1403 12.6147 16.3381Z"
        fill="#C58040" />
    <path
        d="M11.9014 16.6783C12.1037 16.6608 12.2924 16.7316 12.4293 16.8587C12.3166 17.0063 12.1427 17.1089 11.9415 17.1263C11.7392 17.1437 11.5506 17.073 11.4136 16.9459C11.5263 16.7982 11.6991 16.6957 11.9014 16.6783Z"
        fill="#C58040" />
    <path
        d="M13.3018 16.7769C13.3545 16.9696 13.3155 17.1644 13.2133 17.3182C13.0458 17.2352 12.913 17.0855 12.8603 16.8927C12.8077 16.7 12.8466 16.5052 12.9489 16.3514C13.1164 16.4345 13.2492 16.5852 13.3018 16.7769Z"
        fill="#C58040" />
    <path
        d="M12.6601 17.2326C12.8561 17.1813 13.0542 17.2182 13.2123 17.3197C13.128 17.4848 12.9752 17.615 12.7792 17.6662C12.5832 17.7175 12.3851 17.6806 12.2271 17.5791C12.3113 17.414 12.4641 17.2838 12.6601 17.2326Z"
        fill="#C58040" />
    <path
        d="M14.0562 17.0921C14.1416 17.2725 14.1384 17.4714 14.0647 17.6406C13.8845 17.5873 13.7275 17.4622 13.6421 17.2818C13.5568 17.1013 13.56 16.9024 13.6337 16.7333C13.8139 16.7866 13.9709 16.9117 14.0562 17.0921Z"
        fill="#C58040" />
    <path
        d="M13.5052 17.6513C13.6885 17.5672 13.8908 17.5703 14.0636 17.6431C14.0099 17.8195 13.8824 17.9743 13.698 18.0583C13.5146 18.1424 13.3123 18.1393 13.1395 18.0665C13.1933 17.8902 13.3208 17.7354 13.5052 17.6513Z"
        fill="#C58040" />
    <path
        d="M14.7242 7.77246C14.5334 7.84012 14.3322 7.81962 14.1667 7.73247C14.2363 7.56126 14.3775 7.41876 14.5682 7.35007C14.7589 7.28241 14.9602 7.30291 15.1256 7.39005C15.0561 7.56126 14.9149 7.70377 14.7242 7.77246Z"
        fill="#C58040" />
    <path
        d="M16.4945 18.8782L16.4345 18.9366C16.2016 18.7357 15.9635 18.5665 15.7275 18.424C15.699 18.4086 15.6737 18.3933 15.6484 18.3779C15.0383 18.0201 14.4567 17.8284 14.0479 17.6931C13.9846 17.6715 13.9288 17.6531 13.8782 17.6346C13.8371 17.6192 13.796 17.6069 13.756 17.5885C13.5611 17.5208 13.3756 17.4368 13.1965 17.3476C13.1111 17.3076 13.03 17.2645 12.951 17.2184C12.8625 17.1692 12.7782 17.12 12.696 17.0636C12.599 17.0051 12.5042 16.9406 12.4136 16.8719C12.3472 16.8257 12.2819 16.7765 12.2155 16.7232H12.2123C12.0427 16.5848 11.8794 16.4392 11.7287 16.2813C11.6718 16.226 11.6159 16.1675 11.5622 16.1081C11.4147 15.941 11.2735 15.7657 11.1502 15.5832C11.0996 15.5124 11.0533 15.4448 11.009 15.3699C10.8931 15.1874 10.7888 14.9968 10.6982 14.802C10.6602 14.7159 10.6223 14.6287 10.5886 14.5426C10.5127 14.3509 10.4474 14.154 10.3968 13.9531C10.3715 13.8547 10.3494 13.7552 10.3273 13.6568C10.2893 13.462 10.264 13.2652 10.2482 13.0642C10.2419 12.9597 10.2356 12.8572 10.2356 12.7526V12.7065C10.2356 12.5209 10.2451 12.3394 10.2672 12.1569C10.2767 12.0524 10.2925 11.9498 10.3115 11.8484C10.3462 11.6536 10.3936 11.4598 10.4495 11.2712C10.4779 11.1727 10.5127 11.0764 10.5464 10.981C10.616 10.7924 10.6971 10.6109 10.7888 10.4315C10.833 10.3454 10.8773 10.2613 10.9268 10.1783C11.0301 9.99888 11.1439 9.82972 11.2693 9.66569C11.323 9.59495 11.3757 9.52729 11.4326 9.4586C11.5706 9.29149 11.7181 9.13463 11.8762 8.98598C11.9363 8.93062 11.9984 8.87218 12.0648 8.81579C12.2281 8.67431 12.4041 8.54104 12.5864 8.42109C12.6623 8.37188 12.7371 8.32267 12.8161 8.27551C12.8161 8.27551 12.8161 8.27243 12.8193 8.27243C13.0015 8.16479 13.1902 8.06534 13.3851 7.97922C13.4768 7.93617 13.5705 7.89618 13.6654 7.85928C13.835 7.79469 14.0078 7.73625 14.187 7.68602C14.3345 7.64296 14.4851 7.60913 14.6369 7.57837L14.6558 7.65526C14.5115 7.68294 14.3703 7.71677 14.2312 7.75676C14.0268 7.81212 13.8287 7.87978 13.6369 7.9577C13.5611 7.98845 13.4862 8.01921 13.4135 8.05612C13.2218 8.13916 13.0395 8.23553 12.8635 8.34317C12.7845 8.38931 12.7065 8.43852 12.6306 8.4949C12.461 8.60563 12.2977 8.72968 12.1438 8.86193C12.068 8.92036 11.9995 8.98495 11.9299 9.05057C11.7793 9.19204 11.6381 9.34377 11.5053 9.50166C11.4452 9.57239 11.3894 9.64313 11.3357 9.71797C11.2071 9.88816 11.087 10.0635 10.9837 10.249C10.9395 10.3228 10.9015 10.3977 10.8647 10.4715C10.7614 10.6724 10.6729 10.8754 10.597 11.0887C10.5717 11.1563 10.5496 11.2271 10.5306 11.2988C10.4642 11.5152 10.4147 11.7346 10.38 11.9591C10.3673 12.0298 10.3578 12.1006 10.3515 12.1723C10.3294 12.3487 10.3199 12.527 10.3199 12.7065C10.3199 12.7557 10.3199 12.8049 10.3231 12.8551C10.3231 12.9258 10.3294 12.9976 10.3325 13.0653C10.3483 13.2847 10.38 13.501 10.4274 13.7101C10.4432 13.787 10.459 13.8649 10.4811 13.9418C10.5317 14.1428 10.597 14.3396 10.676 14.5313C10.7077 14.6144 10.7424 14.6953 10.7793 14.7753C10.8647 14.9609 10.9616 15.1393 11.068 15.3125C11.1154 15.3925 11.165 15.4673 11.2187 15.5442C11.3346 15.7083 11.4579 15.8682 11.5928 16.0199C11.656 16.0907 11.7213 16.1624 11.7877 16.2301C11.9289 16.3757 12.0796 16.511 12.2376 16.6371C12.3103 16.6955 12.3851 16.754 12.4642 16.8134C12.54 16.8657 12.618 16.918 12.697 16.9713C12.794 17.0359 12.8951 17.0943 13.0015 17.1569C13.0774 17.1969 13.1554 17.2399 13.2344 17.2799C13.4357 17.3783 13.6464 17.4685 13.8666 17.5454C13.8793 17.5485 13.8919 17.5546 13.9046 17.5577C13.9583 17.5762 14.011 17.5946 14.0742 17.6162H14.0774C14.4957 17.7546 15.0995 17.9555 15.7275 18.3287C15.7527 18.3441 15.778 18.3594 15.8065 18.3779C16.0362 18.5163 16.2691 18.6834 16.4945 18.8782Z"
        fill="#C58040" />
    <path
        d="M17.6904 8.43161C17.8738 8.34755 18.0023 8.19377 18.056 8.01641C17.8832 7.94362 17.6809 7.94054 17.4976 8.02461C17.3142 8.10867 17.1857 8.26246 17.132 8.43982C17.3048 8.51261 17.5071 8.51568 17.6904 8.43161Z"
        fill="#C58040" />
    <path
        d="M17.6346 7.65505C17.7199 7.83549 17.8769 7.96056 18.0571 8.01387C18.1309 7.84472 18.134 7.64583 18.0487 7.46539C17.9633 7.28495 17.8063 7.15988 17.6261 7.10657C17.5524 7.27573 17.5492 7.47462 17.6346 7.65505Z"
        fill="#C58040" />
    <path
        d="M18.4186 8.79379C18.6146 8.74253 18.7674 8.61233 18.8517 8.44727C18.6947 8.34577 18.4955 8.30887 18.2995 8.36013C18.1035 8.41139 17.9508 8.54159 17.8665 8.70665C18.0235 8.80814 18.2226 8.84505 18.4186 8.79379Z"
        fill="#C58040" />
    <path
        d="M18.5008 8.02031C18.5535 8.21305 18.6863 8.36273 18.8538 8.44577C18.9571 8.29097 18.995 8.09618 18.9423 7.90446C18.8896 7.71173 18.7569 7.56205 18.5893 7.479C18.4861 7.63381 18.4481 7.8286 18.5008 8.02031Z"
        fill="#C58040" />
    <path
        d="M19.0718 9.27677C19.2742 9.25935 19.447 9.15785 19.5597 9.0092C19.4227 8.8831 19.2341 8.81133 19.0318 8.82876C18.8295 8.84619 18.6567 8.94768 18.5439 9.09634C18.6809 9.22244 18.8695 9.2942 19.0718 9.27677Z"
        fill="#C58040" />
    <path
        d="M19.2889 8.53011C19.3069 8.72797 19.4101 8.89918 19.5608 9.00888C19.6893 8.87458 19.7621 8.68901 19.7441 8.49012C19.7262 8.29226 19.623 8.12105 19.4723 8.01135C19.3437 8.14565 19.271 8.33122 19.2889 8.53011Z"
        fill="#C58040" />
    <path
        d="M19.6303 9.86494C19.8326 9.88237 20.0212 9.81163 20.1582 9.6845C20.0455 9.53687 19.8727 9.43435 19.6704 9.41692C19.468 9.39949 19.2794 9.47023 19.1425 9.59736C19.2552 9.74499 19.428 9.84751 19.6303 9.86494Z"
        fill="#C58040" />
    <path
        d="M19.9769 9.16517C19.959 9.36304 20.0317 9.54962 20.1603 9.68393C20.311 9.5732 20.4153 9.40302 20.4321 9.20516C20.45 9.00729 20.3773 8.8207 20.2488 8.6864C20.0981 8.79712 19.9938 8.96731 19.9769 9.16517Z"
        fill="#C58040" />
    <path
        d="M20.077 10.5398C20.273 10.591 20.4711 10.5541 20.6291 10.4526C20.5448 10.2876 20.392 10.1574 20.1961 10.1061C20.0001 10.0548 19.802 10.0917 19.6439 10.1932C19.7282 10.3583 19.881 10.4885 20.077 10.5398Z"
        fill="#C58040" />
    <path
        d="M20.5416 9.90959C20.4889 10.1023 20.5279 10.2971 20.6301 10.4509C20.7977 10.3679 20.9304 10.2172 20.9831 10.0254C21.0358 9.8327 20.9968 9.63791 20.8946 9.48413C20.7271 9.56717 20.5943 9.71685 20.5416 9.90959Z"
        fill="#C58040" />
    <path
        d="M20.3983 11.2795C20.5817 11.3636 20.784 11.3605 20.9568 11.2877C20.9031 11.1114 20.7756 10.9566 20.5912 10.8725C20.4078 10.7884 20.2055 10.7915 20.0327 10.8643C20.0865 11.0406 20.214 11.1954 20.3983 11.2795Z"
        fill="#C58040" />
    <path
        d="M20.9684 10.7385C20.8831 10.9189 20.8862 11.1178 20.96 11.2869C21.1402 11.2336 21.2972 11.1086 21.3825 10.9281C21.4679 10.7477 21.4647 10.5488 21.391 10.3796C21.2108 10.4329 21.0538 10.558 20.9684 10.7385Z"
        fill="#C58040" />
    <path
        d="M20.5859 12.0654C20.7524 12.1792 20.9516 12.211 21.1349 12.169C21.1128 11.9854 21.0148 11.8122 20.8483 11.6974C20.6818 11.5836 20.4827 11.5518 20.2993 11.5938C20.3214 11.7773 20.4194 11.9506 20.5859 12.0654Z"
        fill="#C58040" />
    <path
        d="M21.2413 11.6304C21.1254 11.7934 21.0928 11.9892 21.136 12.1697C21.3225 12.1481 21.4995 12.0518 21.6154 11.8887C21.7313 11.7257 21.764 11.5299 21.7208 11.3495C21.5343 11.371 21.3572 11.4674 21.2413 11.6304Z"
        fill="#C58040" />
    <path
        d="M20.6314 12.8711C20.7747 13.0115 20.9665 13.0772 21.154 13.0669C21.1646 12.8824 21.0982 12.6948 20.9549 12.5543C20.8116 12.4139 20.6198 12.3482 20.4322 12.3595C20.4217 12.5441 20.4881 12.7317 20.6314 12.8721V12.8711Z"
        fill="#C58040" />
    <path
        d="M21.3553 12.5536C21.212 12.694 21.1456 12.8816 21.1561 13.0662C21.3437 13.0764 21.5354 13.0118 21.6787 12.8703C21.822 12.7299 21.8884 12.5423 21.8779 12.3577C21.6903 12.3475 21.4986 12.4121 21.3553 12.5525V12.5536Z"
        fill="#C58040" />
    <path
        d="M20.5355 13.6658C20.6514 13.8289 20.8284 13.9252 21.0149 13.9468C21.0581 13.7673 21.0265 13.5705 20.9095 13.4075C20.7936 13.2445 20.6166 13.1481 20.4301 13.1266C20.3869 13.306 20.4185 13.5028 20.5355 13.6658Z"
        fill="#C58040" />
    <path
        d="M21.3036 13.4778C21.1371 13.5916 21.0391 13.7659 21.017 13.9494C21.2003 13.9914 21.3995 13.9607 21.5659 13.8459C21.7324 13.7321 21.8304 13.5578 21.8525 13.3743C21.6692 13.3322 21.4701 13.363 21.3036 13.4778Z"
        fill="#C58040" />
    <path
        d="M20.2983 14.4323C20.3836 14.6127 20.5406 14.7378 20.7208 14.7911C20.7946 14.6219 20.7977 14.423 20.7124 14.2426C20.627 14.0622 20.47 13.9371 20.2898 13.8838C20.2161 14.0529 20.2129 14.2518 20.2983 14.4323Z"
        fill="#C58040" />
    <path
        d="M21.0885 14.3767C20.9052 14.4607 20.7766 14.6145 20.7229 14.7919C20.8957 14.8647 21.098 14.8677 21.2814 14.7837C21.4647 14.6996 21.5933 14.5458 21.647 14.3685C21.4742 14.2957 21.2719 14.2926 21.0885 14.3767Z"
        fill="#C58040" />
    <path
        d="M19.9284 15.1468C19.9811 15.3395 20.1139 15.4892 20.2814 15.5722C20.3847 15.4174 20.4226 15.2226 20.3699 15.0309C20.3172 14.8382 20.1845 14.6885 20.0169 14.6055C19.9137 14.7603 19.8757 14.9551 19.9284 15.1468Z"
        fill="#C58040" />
    <path
        d="M20.7166 15.2274C20.5206 15.2787 20.3679 15.4089 20.2836 15.574C20.4406 15.6755 20.6397 15.7124 20.8357 15.6611C21.0317 15.6098 21.1845 15.4796 21.2688 15.3146C21.1118 15.2131 20.9126 15.1762 20.7166 15.2274Z"
        fill="#C58040" />
    <path
        d="M19.4375 15.7884C19.4554 15.9863 19.5587 16.1575 19.7094 16.2672C19.8379 16.1329 19.9106 15.9473 19.8927 15.7484C19.8748 15.5506 19.7715 15.3794 19.6208 15.2697C19.4923 15.404 19.4196 15.5895 19.4375 15.7884Z"
        fill="#C58040" />
    <path
        d="M20.1993 16.0016C19.997 16.019 19.8242 16.1205 19.7114 16.2692C19.8484 16.3953 20.037 16.4671 20.2393 16.4496C20.4416 16.4322 20.6144 16.3307 20.7272 16.182C20.5902 16.0559 20.4016 15.9842 20.1993 16.0016Z"
        fill="#C58040" />
    <path
        d="M18.839 16.3381C18.8211 16.536 18.8938 16.7226 19.0223 16.8569C19.173 16.7462 19.2773 16.576 19.2942 16.3781C19.3121 16.1803 19.2394 15.9937 19.1108 15.8594C18.9602 15.9701 18.8559 16.1403 18.839 16.3381Z"
        fill="#C58040" />
    <path
        d="M19.5512 16.6783C19.3489 16.6608 19.1603 16.7316 19.0233 16.8587C19.1361 17.0063 19.3089 17.1089 19.5112 17.1263C19.7135 17.1437 19.9021 17.073 20.0391 16.9459C19.9263 16.7982 19.7525 16.6957 19.5512 16.6783Z"
        fill="#C58040" />
    <path
        d="M18.1519 16.7769C18.0992 16.9696 18.1382 17.1644 18.2404 17.3182C18.4079 17.2352 18.5407 17.0855 18.5934 16.8927C18.646 16.7 18.607 16.5052 18.5048 16.3514C18.3373 16.4345 18.2045 16.5852 18.1519 16.7769Z"
        fill="#C58040" />
    <path
        d="M18.7936 17.2326C18.5976 17.1813 18.3995 17.2182 18.2415 17.3197C18.3258 17.4848 18.4785 17.615 18.6745 17.6662C18.8705 17.7175 19.0686 17.6806 19.2267 17.5791C19.1424 17.414 18.9896 17.2838 18.7936 17.2326Z"
        fill="#C58040" />
    <path
        d="M17.3964 17.0921C17.3111 17.2725 17.3142 17.4714 17.388 17.6406C17.5682 17.5873 17.7252 17.4622 17.8105 17.2818C17.8959 17.1013 17.8927 16.9024 17.8189 16.7333C17.6388 16.7866 17.4818 16.9117 17.3964 17.0921Z"
        fill="#C58040" />
    <path
        d="M17.9486 17.6513C17.7653 17.5672 17.5629 17.5703 17.3901 17.6431C17.4439 17.8195 17.5714 17.9743 17.7558 18.0583C17.9391 18.1424 18.1414 18.1393 18.3142 18.0665C18.2605 17.8902 18.133 17.7354 17.9486 17.6513Z"
        fill="#C58040" />
    <path
        d="M16.7295 7.77246C16.9202 7.84012 17.1214 7.81962 17.2869 7.73247C17.2173 7.56126 17.0761 7.41876 16.8854 7.35007C16.6947 7.28241 16.4934 7.30291 16.328 7.39005C16.3975 7.56126 16.5387 7.70377 16.7295 7.77246Z"
        fill="#C58040" />
    <path
        d="M21.2161 12.708V12.7603C21.2161 12.8618 21.2098 12.9643 21.2035 13.0658C21.1877 13.2668 21.1624 13.4667 21.1213 13.6615V13.6646C21.1023 13.763 21.0802 13.8593 21.0549 13.9547C21.0043 14.1556 20.939 14.3525 20.8631 14.5442C20.8283 14.6303 20.7904 14.7174 20.7535 14.8036C20.6619 14.9983 20.5618 15.186 20.4459 15.3684C20.4459 15.3684 20.4459 15.3715 20.4427 15.3715C20.4016 15.4453 20.3542 15.5161 20.3047 15.5878C20.1793 15.7673 20.0433 15.9395 19.8958 16.1035C19.8421 16.165 19.7862 16.2235 19.7262 16.2829C19.5755 16.4377 19.4153 16.5854 19.2457 16.7217C19.1793 16.774 19.1108 16.8263 19.0413 16.8735H19.0381C18.9443 16.9442 18.8527 17.0088 18.7526 17.0713C18.6735 17.1236 18.5892 17.1728 18.5039 17.22C18.4249 17.2661 18.3437 17.3092 18.2584 17.3491C18.0793 17.4383 17.897 17.5224 17.702 17.5931H17.6989C17.6578 17.6085 17.6167 17.6208 17.5766 17.6362C17.5229 17.6547 17.4702 17.6731 17.407 17.6946H17.4038C16.9982 17.83 16.4165 18.0217 15.8064 18.3795C15.7811 18.3918 15.7559 18.4072 15.7274 18.4256C15.4914 18.5681 15.2501 18.7342 15.0172 18.9382L14.9572 18.8798C15.1837 18.685 15.4166 18.5189 15.6484 18.3795C15.6737 18.361 15.699 18.3456 15.7274 18.3303C16.3565 17.9571 16.9592 17.7562 17.3775 17.6178C17.4407 17.5962 17.4966 17.5778 17.5471 17.5593C17.5629 17.5532 17.5756 17.5501 17.5914 17.5439C17.8085 17.467 18.016 17.3799 18.2173 17.2815C18.2995 17.2384 18.3774 17.1984 18.4565 17.1523C18.4596 17.1523 18.4596 17.1492 18.4596 17.1492C18.5597 17.0939 18.6577 17.0354 18.7515 16.9729C18.8305 16.9237 18.9085 16.8714 18.9844 16.815C19.0634 16.7597 19.1382 16.7012 19.2141 16.6387C19.3711 16.5126 19.5218 16.3762 19.664 16.2317C19.7336 16.1609 19.7957 16.0922 19.8621 16.0184L19.8653 16.0154C19.997 15.8636 20.1203 15.7068 20.233 15.5458C20.2899 15.4689 20.3394 15.3879 20.39 15.3049C20.4964 15.1347 20.5913 14.9594 20.6756 14.7769C20.7103 14.7 20.7451 14.6252 20.7757 14.5452V14.5421C20.8547 14.3473 20.92 14.1474 20.9738 13.9434C20.9959 13.8665 21.0117 13.7886 21.0275 13.7117V13.7056C21.0749 13.4985 21.1065 13.2832 21.1213 13.0669C21.1244 13.0023 21.1276 12.9377 21.1308 12.869V12.8659C21.1339 12.8136 21.1339 12.7644 21.1339 12.708C21.1339 12.5286 21.1244 12.3502 21.1023 12.1739C21.096 12.1062 21.0865 12.0386 21.077 11.9699C21.0422 11.7413 20.9917 11.5188 20.9232 11.3004C20.9042 11.2297 20.8821 11.1579 20.8568 11.0903C20.7809 10.877 20.6935 10.674 20.5892 10.4731C20.5544 10.3993 20.5133 10.3275 20.4732 10.2568C20.3668 10.0712 20.2499 9.89282 20.1182 9.71956C20.0644 9.64575 20.0086 9.57398 19.9485 9.50324C19.8168 9.34536 19.6745 9.19466 19.5239 9.05215C19.4543 8.98756 19.3858 8.92298 19.31 8.86351L19.3068 8.86044C19.153 8.72819 18.9928 8.60721 18.8232 8.49649C18.7473 8.44113 18.6693 8.39192 18.5903 8.34476C18.4143 8.23711 18.232 8.14074 18.0403 8.0577C17.9676 8.02079 17.8959 7.99004 17.82 7.96236L17.8169 7.95928C17.6251 7.88239 17.427 7.8137 17.2226 7.75834C17.0846 7.71836 16.9423 7.68453 16.798 7.65685L16.8138 7.57996C16.9676 7.61071 17.1183 7.64762 17.2669 7.69068C17.446 7.73681 17.6188 7.79525 17.7884 7.86394H17.7916C17.8854 7.90085 17.977 7.94083 18.0687 7.98081C18.2668 8.07 18.4586 8.17253 18.644 8.28325C18.7199 8.32631 18.7916 8.37552 18.8643 8.42165C19.0497 8.54775 19.2257 8.67795 19.3922 8.82251L19.3953 8.82558C19.4554 8.87787 19.5144 8.93323 19.5744 8.98961C19.7346 9.13827 19.8821 9.29513 20.0212 9.46531C20.0781 9.5299 20.1308 9.59756 20.1814 9.66625C20.3068 9.83028 20.4206 9.99944 20.5238 10.1789V10.1819C20.5744 10.2619 20.6208 10.346 20.6619 10.4321C20.7556 10.6115 20.8378 10.796 20.9042 10.9877V10.9908C20.9421 11.0862 20.9738 11.1795 21.0012 11.2748C21.0612 11.4634 21.1044 11.6572 21.1392 11.852C21.1582 11.9535 21.174 12.056 21.1834 12.1575C21.2056 12.34 21.2151 12.5215 21.2151 12.707L21.2161 12.708Z"
        fill="#C58040" />
    <path
        d="M17.4204 11.4639L16.5328 12.5268C16.8767 12.6302 17.1499 12.8098 17.3522 13.0657C17.5595 13.3166 17.6632 13.6168 17.6632 13.9662C17.6632 14.5174 17.4761 14.9455 17.1018 15.2506C16.7326 15.5508 16.2698 15.7009 15.7135 15.7009C15.2633 15.7009 14.8688 15.6024 14.53 15.4056C14.1911 15.2038 13.9483 14.9135 13.8016 14.5346L14.9851 13.8776C15.0964 14.2369 15.3392 14.4165 15.7135 14.4165C15.9057 14.4165 16.0523 14.3722 16.1535 14.2836C16.2597 14.195 16.3128 14.0769 16.3128 13.9293C16.3128 13.7817 16.2597 13.666 16.1535 13.5824C16.0523 13.4938 15.9057 13.4495 15.7135 13.4495H15.4252L14.9017 12.6966L15.7514 11.6853H13.9685V10.4231H17.4204V11.4639Z"
        fill="#C58040" />
    <defs>
        <filter color-interpolation-filters="sRGB" filterUnits="userSpaceOnUse" height="30.4513" id="filter0_d_176_2573" width="30.8529"
            x="0.299805" y="0.548584">
            <feFlood flood-opacity="0" result="BackgroundImageFix" />
            <feColorMatrix in="SourceAlpha" result="hardAlpha"
                type="matrix" values="0 0 0 0 0 0 0 0 0 0 0 0 0 0 0 0 0 0 127 0" />
            <feOffset dy="3" />
            <feGaussianBlur stdDeviation="4" />
            <feComposite in2="hardAlpha" operator="out" />
            <feColorMatrix type="matrix"
                values="0 0 0 0 0.901961 0 0 0 0 0.741176 0 0 0 0 0.552941 0 0 0 0.4 0" />
            <feBlend in2="BackgroundImageFix" mode="normal" result="effect1_dropShadow_176_2573" />
            <feBlend in="SourceGraphic" in2="effect1_dropShadow_176_2573" mode="normal"
                result="shape" />
        </filter>
    </defs>
</svg>
