<svg fill="none" height="18" viewBox="0 0 18 18" width="18" xmlns="http://www.w3.org/2000/svg">
    <path clip-rule="evenodd"
        d="M9 16.5C5.46447 16.5 3.6967 16.5 2.59835 15.4017C1.5 14.3033 1.5 12.5355 1.5 9C1.5 5.46447 1.5 3.6967 2.59835 2.59835C3.6967 1.5 5.46447 1.5 9 1.5C12.5355 1.5 14.3033 1.5 15.4017 2.59835C16.5 3.6967 16.5 5.46447 16.5 9C16.5 12.5355 16.5 14.3033 15.4017 15.4017C14.3033 16.5 12.5355 16.5 9 16.5ZM6.72724 6.72725C6.94691 6.50758 7.30306 6.50758 7.52273 6.72725L8.99999 8.20451L10.4772 6.72727C10.6969 6.5076 11.0531 6.5076 11.2727 6.72727C11.4924 6.94694 11.4924 7.30309 11.2727 7.52276L9.79549 9.00001L11.2727 10.4772C11.4924 10.6969 11.4924 11.0531 11.2727 11.2727C11.053 11.4924 10.6969 11.4924 10.4772 11.2727L8.99999 9.7955L7.52275 11.2727C7.30308 11.4924 6.94692 11.4924 6.72725 11.2727C6.50758 11.0531 6.50758 10.6969 6.72725 10.4773L8.2045 9.00001L6.72724 7.52275C6.50757 7.30308 6.50757 6.94692 6.72724 6.72725Z"
        fill="#D83033" fill-rule="evenodd" />
</svg>
