<svg width="80" height="83" viewBox="0 0 80 83" fill="none" xmlns="http://www.w3.org/2000/svg">
<path d="M32.8801 60.182C35.1983 56.341 36.6838 50.4297 36.6838 43.7997C36.6838 43.1871 36.6708 42.5813 36.6466 41.9823H43.3562C43.332 42.5813 43.3189 43.1871 43.3189 43.7997C43.3189 50.4297 44.8045 56.341 47.1226 60.182H32.8801Z" fill="#FABF1C"/>
<g style="mix-blend-mode:multiply" opacity="0.5">
<path d="M43.3188 43.7997C43.3188 43.1871 43.3318 42.5813 43.356 41.9823H36.6464C36.6707 42.5813 36.6837 43.1871 36.6837 43.7997C36.6837 44.9816 36.6353 46.1407 36.5449 47.2691C36.5449 47.2691 39.774 45.4695 43.4576 47.2691C43.3672 46.1407 43.3188 44.9816 43.3188 43.7997Z" fill="#FABF1C"/>
</g>
<g style="mix-blend-mode:screen" opacity="0.5">
<path d="M38.3192 41.9823H37.3552C37.3738 42.5813 37.385 43.1871 37.385 43.7997C37.385 50.4297 36.2133 56.341 34.386 60.182H36.4331C37.5946 56.341 38.3397 50.4297 38.3397 43.7997C38.3397 43.1871 38.3322 42.5813 38.3201 41.9823H38.3192Z" fill="#FABF1C"/>
</g>
<g style="mix-blend-mode:multiply" opacity="0.5">
<path d="M47.1221 60.182H43.5689C42.4075 56.341 41.6633 50.4297 41.6633 43.7997C41.6633 43.1871 41.6699 42.5813 41.682 41.9823H43.3556C43.3314 42.5813 43.3184 43.1871 43.3184 43.7997C43.3184 50.4297 44.8039 56.341 47.1221 60.182Z" fill="#FABF1C"/>
</g>
<path d="M30.7818 38.333H30.7734C25.5354 38.3143 21.5072 37.9503 18.0965 37.1867C14.0087 36.2712 10.7592 34.7592 8.1616 32.5634C2.59293 27.8569 0 19.9559 0 7.69893C0 7.16609 0.239362 6.65701 0.661273 6.28877C1.08411 5.92054 1.65318 5.72624 2.23715 5.75C2.402 5.75678 18.8295 6.41265 30.6831 5.91799C31.267 5.89424 31.838 6.08769 32.2608 6.45592C32.6836 6.82416 32.923 7.33409 32.923 7.86693V36.3823C32.923 36.9016 32.6957 37.3988 32.2925 37.7645C31.891 38.1285 31.3471 38.3338 30.7808 38.3338L30.7818 38.333ZM4.30945 9.72848C4.56278 19.6556 6.73101 26.0302 11.0749 29.7023C14.6663 32.7373 19.9844 34.1746 28.6387 34.3995V9.89478C19.6221 10.1595 8.89738 9.87696 4.30852 9.72763L4.30945 9.72848Z" fill="#FABF1C"/>
<g style="mix-blend-mode:multiply" opacity="0.5">
<path d="M6.25724 7.92898C5.16474 7.89758 4.25945 8.71551 4.30881 9.71076C4.30881 9.7167 4.30881 9.72264 4.30881 9.72858C8.93586 9.87876 19.668 10.1588 28.639 9.89573V8.03673C20.7261 8.26921 11.4981 8.08 6.25631 7.92982L6.25724 7.92898Z" fill="#FABF1C"/>
</g>
<g style="mix-blend-mode:screen" opacity="0.5">
<path d="M28.6387 34.3996V33.9236C28.6826 34.1645 28.6854 34.3283 28.6387 34.3996Z" fill="#FABF1C"/>
<path d="M4.30717 9.70996L4.35561 9.72948C4.33977 9.72948 4.32394 9.72863 4.30811 9.72778C4.56144 19.6549 6.72967 26.0295 11.0736 29.7016C14.6649 32.7366 19.9831 34.1739 28.6374 34.3988C28.032 35.3338 24.5784 34.8586 24.5784 34.8586C1.1815 34.5931 4.30717 9.70996 4.30717 9.70996Z" fill="#FABF1C"/>
</g>
<g style="mix-blend-mode:screen" opacity="0.5">
<path d="M32.8665 36.6861V8.17153C32.8665 7.63869 32.6271 7.12876 32.2043 6.76052C31.7814 6.39229 31.2114 6.19799 30.6265 6.22259C18.773 6.71725 2.34453 6.06138 2.18061 6.0546C1.59664 6.03169 1.02664 6.22599 0.604728 6.59338C0.312278 6.84792 0.108308 7.17034 0.00958252 7.5216C0.056151 7.0541 0.286199 6.61628 0.661542 6.28878C1.08438 5.92054 1.65345 5.72624 2.23742 5.75C2.40227 5.75678 18.8298 6.41265 30.6833 5.91799C31.2673 5.89424 31.8382 6.08769 32.2611 6.45592C32.6839 6.82416 32.9233 7.33409 32.9233 7.86693V36.3824C32.9233 36.5461 32.9009 36.7082 32.8571 36.8643C32.8627 36.8057 32.8665 36.7463 32.8665 36.687V36.6861Z" fill="#FABF1C"/>
</g>
<g style="mix-blend-mode:multiply" opacity="0.5">
<path d="M26.9502 37.5813C28.9098 37.6025 30.6366 37.7052 32.1575 37.8774C31.7738 38.1702 31.2876 38.3331 30.7828 38.3331H30.7744C25.5364 38.3144 21.5082 37.9504 18.0976 37.1868C14.0098 36.2713 10.7602 34.7593 8.16264 32.5635C5.24 30.0927 3.13789 26.7421 1.79858 22.3436C4.1624 28.8684 10.4147 37.4023 26.9502 37.5813Z" fill="#FABF1C"/>
</g>
<path d="M47.7077 37.7645C47.3044 37.398 47.0771 36.9008 47.0771 36.3823V7.86607C47.0771 7.33323 47.3165 6.8233 47.7394 6.45506C48.1622 6.08682 48.7322 5.89252 49.3171 5.91713C61.1706 6.41179 77.5991 5.75592 77.763 5.74913C78.347 5.72622 78.917 5.92052 79.3389 6.28791C79.7617 6.65615 80.0002 7.16523 80.0002 7.69807C80.0002 19.9551 77.4072 27.856 71.8386 32.5625C69.241 34.7584 65.9905 36.2703 61.9036 37.1858C58.4929 37.9495 54.4648 38.3135 49.2267 38.3321H49.2184C48.6521 38.3321 48.1082 38.1276 47.7068 37.7628L47.7077 37.7645ZM51.3614 9.89561V34.3995C60.0157 34.1746 65.3348 32.7382 68.9252 29.7023C73.2691 26.0301 75.4374 19.6556 75.6907 9.72846C71.1028 9.87779 60.378 10.1603 51.3605 9.89561H51.3614Z" fill="#FABF1C"/>
<g style="mix-blend-mode:multiply" opacity="0.5">
<path d="M51.3613 8.03575V9.89475C60.3323 10.1586 71.0645 9.87779 75.6915 9.72761C75.6915 9.72167 75.6915 9.71573 75.6924 9.70979C75.7418 8.71453 74.8374 7.89661 73.744 7.928C68.5023 8.07903 59.2742 8.26739 51.3613 8.03491V8.03575Z" fill="#FABF1C"/>
</g>
<g style="mix-blend-mode:screen" opacity="0.5">
<path d="M51.3614 34.3995V33.9235C51.3175 34.1644 51.3147 34.3282 51.3614 34.3995Z" fill="#FABF1C"/>
<path d="M75.6929 9.70972L75.6445 9.72923C75.6603 9.72923 75.6761 9.72838 75.692 9.72753C75.4387 19.6546 73.2704 26.0292 68.9265 29.7014C65.3351 32.7364 60.017 34.1737 51.3627 34.3985C51.9681 35.3335 55.4216 34.8584 55.4216 34.8584C78.8195 34.5928 75.6929 9.70972 75.6929 9.70972Z" fill="#FABF1C"/>
</g>
<g style="mix-blend-mode:screen" opacity="0.5">
<path d="M47.1346 36.6865V8.1719C47.1346 7.63906 47.374 7.12913 47.7968 6.76089C48.2197 6.39265 48.7897 6.19835 49.3746 6.22296C61.2281 6.71762 77.6566 6.06175 77.8205 6.05496C78.4044 6.03205 78.9744 6.22635 79.3964 6.59374C79.6888 6.84828 79.8928 7.1707 79.9915 7.52197C79.9449 7.05446 79.7149 6.61665 79.3395 6.28914C78.9167 5.9209 78.3476 5.7266 77.7637 5.75036C77.5988 5.75715 61.1713 6.41302 49.3178 5.91836C48.7338 5.8946 48.1629 6.08805 47.74 6.45629C47.3172 6.82453 47.0778 7.33446 47.0778 7.8673V36.3827C47.0778 36.5465 47.1002 36.7085 47.1439 36.8647C47.1384 36.8061 47.1346 36.7467 47.1346 36.6873V36.6865Z" fill="#FABF1C"/>
</g>
<g style="mix-blend-mode:multiply" opacity="0.5">
<path d="M53.0515 37.5813C51.0919 37.6025 49.3652 37.7052 47.8442 37.8774C48.228 38.1702 48.7141 38.3331 49.2189 38.3331H49.2273C54.4653 38.3144 58.4935 37.9504 61.9042 37.1868C65.992 36.2713 69.2415 34.7593 71.8391 32.5635C74.7618 30.0927 76.8639 26.7421 78.2032 22.3436C75.8394 28.8684 69.5871 37.4023 53.0515 37.5813Z" fill="#FABF1C"/>
</g>
<path d="M15.7397 0C15.1548 3.05365 14.8419 6.26935 14.8419 9.59027C14.8419 29.5183 26.1003 45.6732 39.9888 45.6732C53.8774 45.6732 65.1358 29.5183 65.1358 9.59027C65.1358 6.26935 64.8229 3.0545 64.238 0L15.7397 0Z" fill="#FABF1C"/>
<path d="M15.7397 0C15.1548 3.05365 14.8419 6.26935 14.8419 9.59027C14.8419 29.5183 26.1003 45.6732 39.9888 45.6732C53.8774 45.6732 65.1358 29.5183 65.1358 9.59027C65.1358 6.26935 64.8229 3.0545 64.238 0L15.7397 0Z" fill="#FABF1C"/>
<g style="mix-blend-mode:multiply" opacity="0.5">
<path d="M64.2377 0H55.1736C55.5396 3.05365 55.7361 6.26935 55.7361 9.59027C55.7361 29.5183 48.6856 45.6732 39.9894 45.6732C53.878 45.6732 65.1364 29.5183 65.1364 9.59027C65.1364 6.26935 64.8235 3.0545 64.2386 0L64.2377 0Z" fill="#FABF1C"/>
</g>
<g style="mix-blend-mode:multiply" opacity="0.5">
<path d="M40.3427 11.8251L43.6378 17.9078L51.0068 18.8835L45.6747 23.6188L46.934 30.3048L40.3427 27.1476L33.7513 30.3048L35.0106 23.6188L29.6785 18.8835L37.0475 17.9078L40.3427 11.8251Z" fill="#F8A921"/>
</g>
<g style="mix-blend-mode:screen" opacity="0.5">
<path d="M24.2418 9.59027C24.2418 6.26935 24.4374 3.0545 24.8044 0H18.6033C18.0873 3.05365 17.8107 6.26935 17.8107 9.59027C17.8107 29.5183 27.7401 45.6732 39.9885 45.6732C31.2914 45.6732 24.2418 29.5183 24.2418 9.59027Z" fill="#FABF1C"/>
</g>
<path d="M26.9733 6.23963C24.0535 6.23963 21.6868 4.08366 21.6868 1.42371C21.6868 4.08366 19.3202 6.23963 16.4004 6.23963C19.3202 6.23963 21.6868 8.39559 21.6868 11.0556C21.6868 8.39559 24.0535 6.23963 26.9733 6.23963Z" fill="#0D0D0D"/>
<path d="M29.0689 11.0555C27.9112 11.0555 26.9733 10.2011 26.9733 9.14648C26.9733 10.2011 26.0354 11.0555 24.8777 11.0555C26.0354 11.0555 26.9733 11.91 26.9733 12.9646C26.9733 11.91 27.9112 11.0555 29.0689 11.0555Z" fill="#0D0D0D"/>
<g style="mix-blend-mode:screen" opacity="0.5">
<path d="M39.6392 0.711867C52.8386 0.711867 63.5391 0.393691 63.5391 0H15.7393C15.7393 0.392842 26.4398 0.711867 39.6392 0.711867Z" fill="#FABF1C"/>
</g>
<path d="M50.1589 60.1821H29.8429C27.1606 60.1821 24.9858 62.1633 24.9858 64.6069H55.016C55.016 62.1633 52.8413 60.1821 50.1589 60.1821Z" fill="#FABF1C"/>
<g style="mix-blend-mode:screen" opacity="0.5">
<path d="M29.8429 60.5139H50.1589C52.7183 60.5139 54.8148 62.3186 55.0011 64.6069H55.016C55.016 62.1633 52.8413 60.1821 50.1589 60.1821H29.8429C27.1606 60.1821 24.9858 62.1633 24.9858 64.6069H25.0007C25.187 62.3186 27.2835 60.5139 29.8429 60.5139Z" fill="#FABF1C"/>
</g>
<g style="mix-blend-mode:multiply" opacity="0.5">
<path d="M55.0159 64.6069H49.5832C49.5832 62.1633 48.1955 60.1821 46.4836 60.1821H50.1588C52.8412 60.1821 55.0159 62.1633 55.0159 64.6069Z" fill="#FABF1C"/>
</g>
<g style="mix-blend-mode:screen" opacity="0.5">
<path d="M35.841 60.1821H31.8305C29.1481 60.1821 26.9734 62.1633 26.9734 64.6069H30.9839C30.9839 62.1633 33.1586 60.1821 35.841 60.1821Z" fill="#FABF1C"/>
</g>
<path d="M62.862 64.6068H17.141C16.8926 64.6068 16.6912 64.7903 16.6912 65.0166V81.1961C16.6912 81.4224 16.8926 81.6059 17.141 81.6059H62.862C63.1104 81.6059 63.3118 81.4224 63.3118 81.1961V65.0166C63.3118 64.7903 63.1104 64.6068 62.862 64.6068Z" fill="#44352A"/>
<g style="mix-blend-mode:multiply" opacity="0.3">
<path d="M62.862 78.6839H17.141C16.8923 78.6839 16.6912 78.5006 16.6912 78.274V81.1953C16.6912 81.4219 16.8923 81.6051 17.141 81.6051H62.862C63.1106 81.6051 63.3118 81.4219 63.3118 81.1953V78.274C63.3118 78.5006 63.1106 78.6839 62.862 78.6839Z" fill="#44352A"/>
</g>
<g style="mix-blend-mode:multiply" opacity="0.3">
<path d="M17.1402 81.6063H19.953C18.8977 81.6063 17.8564 81.5671 16.8301 81.4922C16.9111 81.5628 17.0191 81.6063 17.1402 81.6063Z" fill="#44352A"/>
<path d="M62.861 64.6068H48.883C46.7241 74.2336 34.5939 81.6059 19.9528 81.6059H62.861C63.1097 81.6059 63.3108 81.4227 63.3108 81.1961V65.0166C63.3108 64.7901 63.1097 64.6068 62.861 64.6068Z" fill="#44352A"/>
</g>
<g style="mix-blend-mode:screen" opacity="0.3">
<path d="M62.862 64.6068H17.141C16.8923 64.6068 16.6912 64.7901 16.6912 65.0166V65.5478C16.6912 65.3212 16.8923 65.138 17.141 65.138H62.862C63.1106 65.138 63.3118 65.3212 63.3118 65.5478V65.0166C63.3118 64.7901 63.1106 64.6068 62.862 64.6068Z" fill="#44352A"/>
</g>
<path d="M13.6703 79.4144H66.3299C66.6429 79.4144 66.8962 79.6452 66.8962 79.9303V82.4842C66.8962 82.7693 66.6429 83.0001 66.3299 83.0001H13.6703C13.3573 83.0001 13.104 82.7693 13.104 82.4842V79.9303C13.104 79.6452 13.3573 79.4144 13.6703 79.4144Z" fill="#44352A"/>
<g style="mix-blend-mode:multiply" opacity="0.3">
<path d="M66.3309 82.5367H13.6703C13.3573 82.5367 13.104 82.306 13.104 82.0209V82.4841C13.104 82.7692 13.3573 83 13.6703 83H66.3299C66.6429 83 66.8962 82.7692 66.8962 82.4841V82.0209C66.8962 82.306 66.6429 82.5367 66.3299 82.5367H66.3309Z" fill="#44352A"/>
</g>
<g style="mix-blend-mode:screen" opacity="0.3">
<path d="M66.3309 79.4144H13.6703C13.3573 79.4144 13.104 79.6452 13.104 79.9303V80.408C13.104 80.1229 13.3573 79.8921 13.6703 79.8921H66.3299C66.6429 79.8921 66.8962 80.1229 66.8962 80.408V79.9303C66.8962 79.6452 66.6429 79.4144 66.3299 79.4144H66.3309Z" fill="#44352A"/>
</g>
<g style="mix-blend-mode:multiply" opacity="0.3">
<path d="M66.3302 79.4143H51.3147C51.6276 79.4143 51.881 79.6451 51.881 79.9302V82.4841C51.881 82.7692 51.6276 82.9999 51.3147 82.9999H66.3302C66.6432 82.9999 66.8965 82.7692 66.8965 82.4841V79.9302C66.8965 79.6451 66.6432 79.4143 66.3302 79.4143Z" fill="#44352A"/>
</g>
<g style="mix-blend-mode:screen" opacity="0.3">
<path d="M25.6659 82.4842V79.9303C25.6659 79.6452 25.9193 79.4144 26.2322 79.4144H18.0641C17.7511 79.4144 17.4978 79.6452 17.4978 79.9303V82.4842C17.4978 82.7693 17.7511 83.0001 18.0641 83.0001H26.2322C25.9193 83.0001 25.6659 82.7693 25.6659 82.4842Z" fill="#44352A"/>
</g>
<path d="M59.0951 67.114H20.8279V77.3848H59.0951V67.114Z" fill="#F2D386"/>
<g style="mix-blend-mode:multiply" opacity="0.5">
<path d="M59.0956 77.1659H20.8284V77.3855H59.0956V77.1659Z" fill="#F2D386"/>
</g>
<g style="mix-blend-mode:screen" opacity="0.5">
<path d="M59.0956 67.114H20.8284V67.3337H59.0956V67.114Z" fill="#F2D386"/>
</g>
<g style="mix-blend-mode:multiply" opacity="0.5">
<path d="M24.9863 64.6069H55.0164C55.0164 64.3345 54.9885 64.069 54.9363 63.8102H25.0654C25.0142 64.069 24.9854 64.3345 24.9854 64.6069H24.9863Z" fill="#FABF1C"/>
</g>
<g style="mix-blend-mode:multiply" opacity="0.3">
<path d="M48.078 67.114C46.34 71.2384 42.7263 74.8156 37.9111 77.3848H59.0961V67.114H48.078Z" fill="#F2D386"/>
</g>
<g style="mix-blend-mode:screen" opacity="0.5">
<path d="M22.3342 68.9866C22.6963 68.9866 22.9898 68.7192 22.9898 68.3893C22.9898 68.0594 22.6963 67.792 22.3342 67.792C21.972 67.792 21.6785 68.0594 21.6785 68.3893C21.6785 68.7192 21.972 68.9866 22.3342 68.9866Z" fill="#F2D386"/>
</g>
<g style="mix-blend-mode:screen" opacity="0.5">
<path d="M58.2933 68.3919C58.2933 68.0618 57.9999 67.7946 57.6376 67.7946C57.2753 67.7946 56.9819 68.0618 56.9819 68.3919C56.9819 68.7219 57.2753 68.9892 57.6376 68.9892C57.9999 68.9892 58.2933 68.7219 58.2933 68.3919Z" fill="#F2D386"/>
</g>
<g style="mix-blend-mode:screen" opacity="0.5">
<path d="M57.6376 76.6984C57.9997 76.6984 58.2933 76.431 58.2933 76.1011C58.2933 75.7712 57.9997 75.5038 57.6376 75.5038C57.2755 75.5038 56.9819 75.7712 56.9819 76.1011C56.9819 76.431 57.2755 76.6984 57.6376 76.6984Z" fill="#F2D386"/>
</g>
<path d="M22.2858 68.923C22.6479 68.923 22.9415 68.6556 22.9415 68.3257C22.9415 67.9958 22.6479 67.7284 22.2858 67.7284C21.9237 67.7284 21.6301 67.9958 21.6301 68.3257C21.6301 68.6556 21.9237 68.923 22.2858 68.923Z" fill="#44352A"/>
<g style="mix-blend-mode:screen" opacity="0.5">
<path d="M22.3342 76.6916C22.6963 76.6916 22.9898 76.4242 22.9898 76.0943C22.9898 75.7644 22.6963 75.4969 22.3342 75.4969C21.972 75.4969 21.6785 75.7644 21.6785 76.0943C21.6785 76.4242 21.972 76.6916 22.3342 76.6916Z" fill="#F2D386"/>
</g>
<path d="M22.2858 76.6254C22.6479 76.6254 22.9415 76.358 22.9415 76.0281C22.9415 75.6982 22.6479 75.4308 22.2858 75.4308C21.9237 75.4308 21.6301 75.6982 21.6301 76.0281C21.6301 76.358 21.9237 76.6254 22.2858 76.6254Z" fill="#44352A"/>
<path d="M57.6376 68.923C57.9997 68.923 58.2933 68.6556 58.2933 68.3257C58.2933 67.9958 57.9997 67.7284 57.6376 67.7284C57.2755 67.7284 56.9819 67.9958 56.9819 68.3257C56.9819 68.6556 57.2755 68.923 57.6376 68.923Z" fill="#44352A"/>
<path d="M57.6376 76.6254C57.9997 76.6254 58.2933 76.358 58.2933 76.0281C58.2933 75.6982 57.9997 75.4308 57.6376 75.4308C57.2755 75.4308 56.9819 75.6982 56.9819 76.0281C56.9819 76.358 57.2755 76.6254 57.6376 76.6254Z" fill="#44352A"/>
</svg>
