<svg fill="none" height="31" viewBox="0 0 32 31" width="32" xmlns="http://www.w3.org/2000/svg">
    <g filter="url(#filter0_d_176_2007)">
        <path
            d="M20.9779 17.8833C23.8781 15.0615 23.8781 10.4864 20.9779 7.66458C18.0777 4.84276 13.3755 4.84276 10.4753 7.66458C7.57512 10.4864 7.57512 15.0615 10.4753 17.8833C13.3755 20.7051 18.0777 20.7051 20.9779 17.8833Z"
            fill="#FFF06C" />
    </g>
    <path
        d="M13.7626 8.43125C13.5793 8.34718 13.4507 8.1934 13.397 8.01604C13.5698 7.94325 13.7721 7.94017 13.9554 8.02424C14.1388 8.10831 14.2673 8.26209 14.3211 8.43945C14.1483 8.51224 13.9459 8.51532 13.7626 8.43125Z"
        fill="#FFAB1A" />
    <path
        d="M13.8196 7.65469C13.7342 7.83513 13.5772 7.96021 13.397 8.01352C13.3233 7.84436 13.3201 7.64546 13.4054 7.46503C13.4908 7.28459 13.6478 7.15951 13.828 7.1062C13.9017 7.27536 13.9049 7.47425 13.8196 7.65469Z"
        fill="#FFAB1A" />
    <path
        d="M13.0345 8.79355C12.8385 8.74229 12.6857 8.61209 12.6014 8.44703C12.7584 8.34553 12.9576 8.30862 13.1536 8.35988C13.3496 8.41114 13.5023 8.54135 13.5866 8.7064C13.4296 8.8079 13.2305 8.84481 13.0345 8.79355Z"
        fill="#FFAB1A" />
    <path
        d="M12.9533 8.01995C12.9006 8.21269 12.7678 8.36237 12.6003 8.44542C12.497 8.29061 12.4591 8.09582 12.5118 7.9041C12.5645 7.71136 12.6972 7.56168 12.8648 7.47864C12.968 7.63345 13.006 7.82824 12.9533 8.01995Z"
        fill="#FFAB1A" />
    <path
        d="M12.3823 9.27641C12.18 9.25898 12.0072 9.15749 11.8944 9.00883C12.0314 8.88273 12.22 8.81096 12.4223 8.82839C12.6246 8.84582 12.7974 8.94732 12.9102 9.09597C12.7732 9.22208 12.5846 9.29384 12.3823 9.27641Z"
        fill="#FFAB1A" />
    <path
        d="M12.1641 8.52974C12.1461 8.72761 12.0429 8.89882 11.8922 9.00852C11.7637 8.87422 11.691 8.68865 11.7089 8.48976C11.7268 8.2919 11.83 8.12068 11.9807 8.01099C12.1093 8.14529 12.182 8.33085 12.1641 8.52974Z"
        fill="#FFAB1A" />
    <path
        d="M11.8239 9.86457C11.6216 9.882 11.433 9.81126 11.296 9.68414C11.4088 9.53651 11.5816 9.43398 11.7839 9.41656C11.9862 9.39913 12.1748 9.46987 12.3118 9.59699C12.199 9.74462 12.0262 9.84715 11.8239 9.86457Z"
        fill="#FFAB1A" />
    <path
        d="M11.4772 9.16481C11.4951 9.36268 11.4224 9.54927 11.2938 9.68357C11.1432 9.57285 11.0388 9.40266 11.022 9.20479C11.0041 9.00693 11.0768 8.82034 11.2053 8.68604C11.356 8.79676 11.4603 8.96694 11.4772 9.16481Z"
        fill="#FFAB1A" />
    <path
        d="M11.3759 10.5394C11.1799 10.5907 10.9818 10.5538 10.8237 10.4523C10.908 10.2872 11.0608 10.157 11.2568 10.1057C11.4528 10.0545 11.6509 10.0914 11.8089 10.1929C11.7246 10.3579 11.5719 10.4881 11.3759 10.5394Z"
        fill="#FFAB1A" />
    <path
        d="M10.9112 9.90923C10.9639 10.102 10.9249 10.2968 10.8227 10.4505C10.6552 10.3675 10.5224 10.2168 10.4697 10.0251C10.417 9.83234 10.456 9.63755 10.5582 9.48376C10.7258 9.56681 10.8585 9.71649 10.9112 9.90923Z"
        fill="#FFAB1A" />
    <path
        d="M11.0547 11.2792C10.8713 11.3632 10.669 11.3601 10.4962 11.2874C10.55 11.111 10.6775 10.9562 10.8618 10.8721C11.0462 10.7881 11.2475 10.7912 11.4203 10.8639C11.3666 11.0403 11.2391 11.1951 11.0547 11.2792Z"
        fill="#FFAB1A" />
    <path
        d="M10.4857 10.7381C10.571 10.9185 10.5679 11.1174 10.4941 11.2866C10.3139 11.2333 10.1569 11.1082 10.0716 10.9278C9.98624 10.7473 9.9894 10.5484 10.0632 10.3793C10.2433 10.4326 10.4003 10.5577 10.4857 10.7381Z"
        fill="#FFAB1A" />
    <path
        d="M10.8681 12.0652C10.7016 12.179 10.5024 12.2108 10.3191 12.1687C10.3412 11.9852 10.4392 11.8119 10.6057 11.6971C10.7722 11.5833 10.9713 11.5515 11.1547 11.5936C11.1325 11.7771 11.0345 11.9503 10.8681 12.0652Z"
        fill="#FFAB1A" />
    <path
        d="M10.2117 11.6302C10.3276 11.7932 10.3603 11.989 10.3171 12.1694C10.1306 12.1479 9.95355 12.0515 9.83764 11.8885C9.72174 11.7255 9.68907 11.5297 9.73227 11.3492C9.91878 11.3708 10.0958 11.4671 10.2117 11.6302Z"
        fill="#FFAB1A" />
    <path
        d="M10.8217 12.8709C10.6784 13.0113 10.4866 13.0769 10.2991 13.0667C10.2885 12.8821 10.3549 12.6945 10.4982 12.5541C10.6415 12.4136 10.8333 12.348 11.0208 12.3593C11.0314 12.5438 10.965 12.7314 10.8217 12.8719V12.8709Z"
        fill="#FFAB1A" />
    <path
        d="M10.0989 12.5533C10.2422 12.6938 10.3086 12.8814 10.2981 13.0659C10.1105 13.0762 9.91873 13.0116 9.77543 12.8701C9.63212 12.7297 9.56574 12.542 9.57628 12.3575C9.76384 12.3472 9.95561 12.4118 10.0989 12.5523V12.5533Z"
        fill="#FFAB1A" />
    <path
        d="M10.9187 13.6655C10.8028 13.8285 10.6257 13.9249 10.4392 13.9464C10.396 13.767 10.4277 13.5701 10.5446 13.4071C10.6605 13.2441 10.8375 13.1478 11.024 13.1262C11.0672 13.3056 11.0356 13.5025 10.9187 13.6655Z"
        fill="#FFAB1A" />
    <path
        d="M10.1505 13.4774C10.317 13.5912 10.415 13.7655 10.4371 13.949C10.2538 13.9911 10.0547 13.9603 9.88817 13.8455C9.72168 13.7317 9.62369 13.5574 9.60156 13.3739C9.78491 13.3319 9.98405 13.3626 10.1505 13.4774Z"
        fill="#FFAB1A" />
    <path
        d="M11.1559 14.432C11.0705 14.6125 10.9135 14.7375 10.7333 14.7909C10.6596 14.6217 10.6564 14.4228 10.7418 14.2424C10.8271 14.0619 10.9841 13.9369 11.1643 13.8835C11.238 14.0527 11.2412 14.2516 11.1559 14.432Z"
        fill="#FFAB1A" />
    <path
        d="M10.3656 14.3764C10.5489 14.4605 10.6775 14.6143 10.7312 14.7916C10.5584 14.8644 10.3561 14.8675 10.1728 14.7834C9.98942 14.6994 9.86087 14.5456 9.80713 14.3682C9.97993 14.2954 10.1822 14.2923 10.3656 14.3764Z"
        fill="#FFAB1A" />
    <path
        d="M11.5246 15.1465C11.4719 15.3393 11.3391 15.489 11.1716 15.572C11.0683 15.4172 11.0304 15.2224 11.0831 15.0307C11.1358 14.8379 11.2685 14.6883 11.4361 14.6052C11.5393 14.76 11.5773 14.9548 11.5246 15.1465Z"
        fill="#FFAB1A" />
    <path
        d="M10.7374 15.2272C10.9334 15.2785 11.0862 15.4087 11.1705 15.5737C11.0135 15.6752 10.8144 15.7121 10.6184 15.6609C10.4224 15.6096 10.2696 15.4794 10.1853 15.3143C10.3423 15.2128 10.5415 15.1759 10.7374 15.2272Z"
        fill="#FFAB1A" />
    <path
        d="M12.0165 15.7882C11.9986 15.986 11.8953 16.1572 11.7446 16.2669C11.6161 16.1326 11.5434 15.9471 11.5613 15.7482C11.5792 15.5503 11.6825 15.3791 11.8331 15.2694C11.9617 15.4037 12.0344 15.5893 12.0165 15.7882Z"
        fill="#FFAB1A" />
    <path
        d="M11.2547 16.0014C11.457 16.0188 11.6298 16.1203 11.7426 16.2689C11.6056 16.3951 11.417 16.4668 11.2147 16.4494C11.0124 16.432 10.8396 16.3305 10.7268 16.1818C10.8638 16.0557 11.0524 15.9839 11.2547 16.0014Z"
        fill="#FFAB1A" />
    <path
        d="M12.6151 16.3379C12.633 16.5358 12.5603 16.7224 12.4318 16.8567C12.2811 16.7459 12.1768 16.5758 12.1599 16.3779C12.142 16.18 12.2147 15.9934 12.3433 15.8591C12.4939 15.9699 12.5983 16.14 12.6151 16.3379Z"
        fill="#FFAB1A" />
    <path
        d="M11.9018 16.678C12.1041 16.6606 12.2927 16.7313 12.4297 16.8585C12.317 17.0061 12.1431 17.1086 11.9418 17.126C11.7395 17.1435 11.5509 17.0727 11.4139 16.9456C11.5267 16.798 11.6995 16.6955 11.9018 16.678Z"
        fill="#FFAB1A" />
    <path
        d="M13.3022 16.7765C13.3549 16.9693 13.3159 17.1641 13.2137 17.3179C13.0462 17.2348 12.9134 17.0851 12.8607 16.8924C12.808 16.6996 12.847 16.5049 12.9492 16.3511C13.1168 16.4341 13.2495 16.5848 13.3022 16.7765Z"
        fill="#FFAB1A" />
    <path
        d="M12.6605 17.2323C12.8565 17.1811 13.0546 17.218 13.2126 17.3195C13.1283 17.4845 12.9755 17.6147 12.7796 17.666C12.5836 17.7172 12.3855 17.6803 12.2274 17.5788C12.3117 17.4138 12.4645 17.2836 12.6605 17.2323Z"
        fill="#FFAB1A" />
    <path
        d="M14.0566 17.0919C14.142 17.2723 14.1388 17.4712 14.065 17.6403C13.8849 17.587 13.7279 17.462 13.6425 17.2815C13.5572 17.1011 13.5603 16.9022 13.6341 16.733C13.8143 16.7863 13.9713 16.9114 14.0566 17.0919Z"
        fill="#FFAB1A" />
    <path
        d="M13.5055 17.6511C13.6889 17.567 13.8912 17.5701 14.064 17.6429C14.0102 17.8192 13.8827 17.974 13.6984 18.0581C13.515 18.1422 13.3127 18.1391 13.1399 18.0663C13.1936 17.8899 13.3211 17.7351 13.5055 17.6511Z"
        fill="#FFAB1A" />
    <path
        d="M14.7245 7.77209C14.5338 7.83976 14.3325 7.81925 14.1671 7.73211C14.2367 7.5609 14.3779 7.41839 14.5686 7.34971C14.7593 7.28204 14.9605 7.30255 15.126 7.38969C15.0564 7.5609 14.9152 7.7034 14.7245 7.77209Z"
        fill="#FFAB1A" />
    <path
        d="M16.4949 18.8779L16.4348 18.9364C16.202 18.7354 15.9638 18.5663 15.7278 18.4238C15.6994 18.4084 15.6741 18.393 15.6488 18.3776C15.0387 18.0198 14.4571 17.8281 14.0482 17.6928C13.985 17.6712 13.9292 17.6528 13.8786 17.6343C13.8375 17.619 13.7964 17.6067 13.7564 17.5882C13.5614 17.5205 13.376 17.4365 13.1968 17.3473C13.1115 17.3073 13.0304 17.2642 12.9513 17.2181C12.8628 17.1689 12.7785 17.1197 12.6963 17.0633C12.5994 17.0049 12.5046 16.9403 12.4139 16.8716C12.3476 16.8254 12.2822 16.7762 12.2159 16.7229H12.2127C12.043 16.5845 11.8797 16.4389 11.729 16.2811C11.6721 16.2257 11.6163 16.1673 11.5626 16.1078C11.415 15.9407 11.2738 15.7654 11.1506 15.5829C11.1 15.5121 11.0536 15.4445 11.0094 15.3696C10.8935 15.1872 10.7892 14.9965 10.6985 14.8017C10.6606 14.7156 10.6227 14.6284 10.5889 14.5423C10.5131 14.3506 10.4478 14.1537 10.3972 13.9528C10.3719 13.8544 10.3498 13.7549 10.3276 13.6565C10.2897 13.4617 10.2644 13.2649 10.2486 13.0639C10.2423 12.9594 10.236 12.8568 10.236 12.7523V12.7061C10.236 12.5206 10.2454 12.3391 10.2676 12.1566C10.2771 12.052 10.2929 11.9495 10.3118 11.848C10.3466 11.6532 10.394 11.4595 10.4499 11.2708C10.4783 11.1724 10.5131 11.076 10.5468 10.9807C10.6163 10.7921 10.6975 10.6106 10.7892 10.4312C10.8334 10.3451 10.8777 10.261 10.9272 10.1779C11.0304 9.99854 11.1442 9.82938 11.2696 9.66534C11.3234 9.5946 11.3761 9.52694 11.433 9.45825C11.571 9.29114 11.7185 9.13428 11.8766 8.98562C11.9366 8.93026 11.9988 8.87182 12.0652 8.81544C12.2285 8.67396 12.4045 8.54068 12.5868 8.42073C12.6626 8.37152 12.7374 8.32231 12.8165 8.27515C12.8165 8.27515 12.8165 8.27207 12.8196 8.27207C13.0019 8.16443 13.1905 8.06498 13.3855 7.97886C13.4771 7.9358 13.5709 7.89582 13.6657 7.85891C13.8354 7.79432 14.0082 7.73589 14.1873 7.68565C14.3348 7.64259 14.4855 7.60876 14.6372 7.578L14.6562 7.65489C14.5118 7.68257 14.3707 7.71641 14.2316 7.75639C14.0272 7.81175 13.8291 7.87942 13.6373 7.95733C13.5614 7.98809 13.4866 8.01885 13.4139 8.05575C13.2221 8.1388 13.0398 8.23517 12.8639 8.34281C12.7848 8.38895 12.7069 8.43816 12.631 8.49455C12.4614 8.60527 12.298 8.72932 12.1442 8.86157C12.0683 8.92001 11.9998 8.9846 11.9303 9.05021C11.7796 9.19169 11.6384 9.34342 11.5057 9.50131C11.4456 9.57205 11.3898 9.64279 11.336 9.71763C11.2075 9.88781 11.0873 10.0631 10.9841 10.2487C10.9398 10.3225 10.9019 10.3973 10.865 10.4712C10.7618 10.6721 10.6732 10.8751 10.5974 11.0883C10.5721 11.156 10.55 11.2267 10.531 11.2985C10.4646 11.5148 10.4151 11.7342 10.3803 11.9587C10.3677 12.0295 10.3582 12.1002 10.3519 12.172C10.3297 12.3483 10.3203 12.5267 10.3203 12.7061C10.3203 12.7553 10.3203 12.8046 10.3234 12.8548C10.3234 12.9255 10.3297 12.9973 10.3329 13.065C10.3487 13.2844 10.3803 13.5007 10.4277 13.7098C10.4435 13.7867 10.4593 13.8646 10.4815 13.9415C10.532 14.1425 10.5974 14.3393 10.6764 14.531C10.708 14.6141 10.7428 14.695 10.7797 14.775C10.865 14.9606 10.962 15.139 11.0684 15.3122C11.1158 15.3922 11.1653 15.467 11.2191 15.5439C11.335 15.708 11.4582 15.8679 11.5931 16.0196C11.6563 16.0904 11.7217 16.1621 11.7881 16.2298C11.9292 16.3754 12.0799 16.5107 12.238 16.6368C12.3107 16.6952 12.3855 16.7537 12.4645 16.8131C12.5404 16.8654 12.6184 16.9177 12.6974 16.971C12.7943 17.0356 12.8955 17.0941 13.0019 17.1566C13.0778 17.1966 13.1557 17.2396 13.2348 17.2796C13.436 17.378 13.6468 17.4683 13.867 17.5451C13.8796 17.5482 13.8923 17.5544 13.9049 17.5574C13.9587 17.5759 14.0113 17.5944 14.0746 17.6159H14.0777C14.496 17.7543 15.0998 17.9552 15.7278 18.3284C15.7531 18.3438 15.7784 18.3592 15.8068 18.3776C16.0365 18.516 16.2694 18.6831 16.4949 18.8779Z"
        fill="#FFAB1A" />
    <path
        d="M17.6908 8.43125C17.8741 8.34718 18.0027 8.1934 18.0564 8.01604C17.8836 7.94325 17.6813 7.94017 17.498 8.02424C17.3146 8.10831 17.1861 8.26209 17.1323 8.43945C17.3051 8.51224 17.5074 8.51532 17.6908 8.43125Z"
        fill="#FFAB1A" />
    <path
        d="M17.6349 7.65469C17.7203 7.83513 17.8773 7.96021 18.0575 8.01352C18.1312 7.84436 18.1344 7.64546 18.049 7.46503C17.9637 7.28459 17.8067 7.15951 17.6265 7.1062C17.5528 7.27536 17.5496 7.47425 17.6349 7.65469Z"
        fill="#FFAB1A" />
    <path
        d="M18.419 8.79355C18.6149 8.74229 18.7677 8.61209 18.852 8.44703C18.695 8.34553 18.4959 8.30862 18.2999 8.35988C18.1039 8.41114 17.9511 8.54135 17.8668 8.7064C18.0238 8.8079 18.223 8.84481 18.419 8.79355Z"
        fill="#FFAB1A" />
    <path
        d="M18.5012 8.01995C18.5539 8.21269 18.6866 8.36237 18.8542 8.44542C18.9574 8.29061 18.9954 8.09582 18.9427 7.9041C18.89 7.71136 18.7572 7.56168 18.5897 7.47864C18.4864 7.63345 18.4485 7.82824 18.5012 8.01995Z"
        fill="#FFAB1A" />
    <path
        d="M19.0722 9.27641C19.2745 9.25898 19.4473 9.15749 19.5601 9.00883C19.4231 8.88273 19.2345 8.81096 19.0322 8.82839C18.8299 8.84582 18.6571 8.94732 18.5443 9.09597C18.6813 9.22208 18.8699 9.29384 19.0722 9.27641Z"
        fill="#FFAB1A" />
    <path
        d="M19.2893 8.52974C19.3072 8.72761 19.4105 8.89882 19.5612 9.00852C19.6897 8.87422 19.7624 8.68865 19.7445 8.48976C19.7266 8.2919 19.6233 8.12068 19.4727 8.01099C19.3441 8.14529 19.2714 8.33085 19.2893 8.52974Z"
        fill="#FFAB1A" />
    <path
        d="M19.6307 9.86457C19.833 9.882 20.0216 9.81126 20.1586 9.68414C20.0458 9.53651 19.873 9.43398 19.6707 9.41656C19.4684 9.39913 19.2798 9.46987 19.1428 9.59699C19.2556 9.74462 19.4284 9.84715 19.6307 9.86457Z"
        fill="#FFAB1A" />
    <path
        d="M19.9773 9.16481C19.9594 9.36268 20.0321 9.54927 20.1606 9.68357C20.3113 9.57285 20.4156 9.40266 20.4325 9.20479C20.4504 9.00693 20.3777 8.82034 20.2492 8.68604C20.0985 8.79676 19.9942 8.96694 19.9773 9.16481Z"
        fill="#FFAB1A" />
    <path
        d="M20.0774 10.5394C20.2733 10.5907 20.4714 10.5538 20.6295 10.4523C20.5452 10.2872 20.3924 10.157 20.1964 10.1057C20.0004 10.0545 19.8023 10.0914 19.6443 10.1929C19.7286 10.3579 19.8814 10.4881 20.0774 10.5394Z"
        fill="#FFAB1A" />
    <path
        d="M20.542 9.90923C20.4893 10.102 20.5283 10.2968 20.6305 10.4505C20.798 10.3675 20.9308 10.2168 20.9835 10.0251C21.0362 9.83234 20.9972 9.63755 20.895 9.48376C20.7274 9.56681 20.5947 9.71649 20.542 9.90923Z"
        fill="#FFAB1A" />
    <path
        d="M20.3987 11.2792C20.5821 11.3632 20.7844 11.3601 20.9572 11.2874C20.9034 11.111 20.7759 10.9562 20.5915 10.8721C20.4082 10.7881 20.2059 10.7912 20.0331 10.8639C20.0868 11.0403 20.2143 11.1951 20.3987 11.2792Z"
        fill="#FFAB1A" />
    <path
        d="M20.9688 10.7381C20.8835 10.9185 20.8866 11.1174 20.9604 11.2866C21.1406 11.2333 21.2976 11.1082 21.3829 10.9278C21.4683 10.7473 21.4651 10.5484 21.3913 10.3793C21.2112 10.4326 21.0542 10.5577 20.9688 10.7381Z"
        fill="#FFAB1A" />
    <path
        d="M20.5863 12.0652C20.7528 12.179 20.9519 12.2108 21.1353 12.1687C21.1131 11.9852 21.0151 11.8119 20.8487 11.6971C20.6822 11.5833 20.483 11.5515 20.2997 11.5936C20.3218 11.7771 20.4198 11.9503 20.5863 12.0652Z"
        fill="#FFAB1A" />
    <path
        d="M21.2417 11.6302C21.1258 11.7932 21.0931 11.989 21.1363 12.1694C21.3228 12.1479 21.4999 12.0515 21.6158 11.8885C21.7317 11.7255 21.7643 11.5297 21.7211 11.3492C21.5346 11.3708 21.3576 11.4671 21.2417 11.6302Z"
        fill="#FFAB1A" />
    <path
        d="M20.6317 12.8709C20.7751 13.0113 20.9668 13.0769 21.1544 13.0667C21.1649 12.8821 21.0985 12.6945 20.9552 12.5541C20.8119 12.4136 20.6202 12.348 20.4326 12.3593C20.4221 12.5438 20.4884 12.7314 20.6317 12.8719V12.8709Z"
        fill="#FFAB1A" />
    <path
        d="M21.3556 12.5533C21.2123 12.6938 21.1459 12.8814 21.1565 13.0659C21.344 13.0762 21.5358 13.0116 21.6791 12.8701C21.8224 12.7297 21.8888 12.542 21.8783 12.3575C21.6907 12.3472 21.4989 12.4118 21.3556 12.5523V12.5533Z"
        fill="#FFAB1A" />
    <path
        d="M20.5357 13.6655C20.6516 13.8285 20.8286 13.9249 21.0151 13.9464C21.0583 13.767 21.0267 13.5701 20.9098 13.4071C20.7939 13.2441 20.6168 13.1478 20.4303 13.1262C20.3871 13.3056 20.4187 13.5025 20.5357 13.6655Z"
        fill="#FFAB1A" />
    <path
        d="M21.3038 13.4774C21.1373 13.5912 21.0393 13.7655 21.0172 13.949C21.2006 13.9911 21.3997 13.9603 21.5662 13.8455C21.7327 13.7317 21.8307 13.5574 21.8528 13.3739C21.6694 13.3319 21.4703 13.3626 21.3038 13.4774Z"
        fill="#FFAB1A" />
    <path
        d="M20.2986 14.432C20.384 14.6125 20.541 14.7375 20.7212 14.7909C20.7949 14.6217 20.7981 14.4228 20.7127 14.2424C20.6274 14.0619 20.4704 13.9369 20.2902 13.8835C20.2164 14.0527 20.2133 14.2516 20.2986 14.432Z"
        fill="#FFAB1A" />
    <path
        d="M21.0889 14.3764C20.9056 14.4605 20.777 14.6143 20.7233 14.7916C20.8961 14.8644 21.0984 14.8675 21.2817 14.7834C21.4651 14.6994 21.5936 14.5456 21.6474 14.3682C21.4746 14.2954 21.2722 14.2923 21.0889 14.3764Z"
        fill="#FFAB1A" />
    <path
        d="M19.9288 15.1465C19.9815 15.3393 20.1142 15.489 20.2818 15.572C20.385 15.4172 20.423 15.2224 20.3703 15.0307C20.3176 14.8379 20.1848 14.6883 20.0173 14.6052C19.914 14.76 19.8761 14.9548 19.9288 15.1465Z"
        fill="#FFAB1A" />
    <path
        d="M20.717 15.2272C20.521 15.2785 20.3682 15.4087 20.2839 15.5737C20.4409 15.6752 20.6401 15.7121 20.8361 15.6609C21.0321 15.6096 21.1848 15.4794 21.2691 15.3143C21.1121 15.2128 20.913 15.1759 20.717 15.2272Z"
        fill="#FFAB1A" />
    <path
        d="M19.4379 15.7882C19.4558 15.986 19.559 16.1572 19.7097 16.2669C19.8383 16.1326 19.911 15.9471 19.8931 15.7482C19.8752 15.5503 19.7719 15.3791 19.6212 15.2694C19.4927 15.4037 19.42 15.5893 19.4379 15.7882Z"
        fill="#FFAB1A" />
    <path
        d="M20.1997 16.0014C19.9973 16.0188 19.8245 16.1203 19.7118 16.2689C19.8488 16.3951 20.0374 16.4668 20.2397 16.4494C20.442 16.432 20.6148 16.3305 20.7276 16.1818C20.5906 16.0557 20.402 15.9839 20.1997 16.0014Z"
        fill="#FFAB1A" />
    <path
        d="M18.8394 16.3379C18.8214 16.5358 18.8942 16.7224 19.0227 16.8567C19.1734 16.7459 19.2777 16.5758 19.2946 16.3779C19.3125 16.18 19.2398 15.9934 19.1112 15.8591C18.9605 15.9699 18.8562 16.14 18.8394 16.3379Z"
        fill="#FFAB1A" />
    <path
        d="M19.5516 16.678C19.3493 16.6606 19.1607 16.7313 19.0237 16.8585C19.1364 17.0061 19.3092 17.1086 19.5115 17.126C19.7139 17.1435 19.9025 17.0727 20.0394 16.9456C19.9267 16.798 19.7528 16.6955 19.5516 16.678Z"
        fill="#FFAB1A" />
    <path
        d="M18.1522 16.7765C18.0995 16.9693 18.1385 17.1641 18.2407 17.3179C18.4083 17.2348 18.541 17.0851 18.5937 16.8924C18.6464 16.6996 18.6074 16.5049 18.5052 16.3511C18.3377 16.4341 18.2049 16.5848 18.1522 16.7765Z"
        fill="#FFAB1A" />
    <path
        d="M18.794 17.2323C18.598 17.1811 18.3999 17.218 18.2418 17.3195C18.3261 17.4845 18.4789 17.6147 18.6749 17.666C18.8709 17.7172 19.069 17.6803 19.227 17.5788C19.1427 17.4138 18.9899 17.2836 18.794 17.2323Z"
        fill="#FFAB1A" />
    <path
        d="M17.3968 17.0919C17.3114 17.2723 17.3146 17.4712 17.3884 17.6403C17.5685 17.587 17.7255 17.462 17.8109 17.2815C17.8962 17.1011 17.8931 16.9022 17.8193 16.733C17.6391 16.7863 17.4821 16.9114 17.3968 17.0919Z"
        fill="#FFAB1A" />
    <path
        d="M17.949 17.6511C17.7656 17.567 17.5633 17.5701 17.3905 17.6429C17.4442 17.8192 17.5717 17.974 17.7561 18.0581C17.9395 18.1422 18.1418 18.1391 18.3146 18.0663C18.2609 17.8899 18.1334 17.7351 17.949 17.6511Z"
        fill="#FFAB1A" />
    <path
        d="M16.7298 7.77209C16.9205 7.83976 17.1218 7.81925 17.2872 7.73211C17.2177 7.5609 17.0765 7.41839 16.8858 7.34971C16.6951 7.28204 16.4938 7.30255 16.3284 7.38969C16.3979 7.5609 16.5391 7.7034 16.7298 7.77209Z"
        fill="#FFAB1A" />
    <path
        d="M21.2165 12.7077V12.76C21.2165 12.8615 21.2101 12.964 21.2038 13.0655C21.188 13.2665 21.1627 13.4664 21.1216 13.6612V13.6642C21.1027 13.7627 21.0805 13.859 21.0552 13.9544C21.0047 14.1553 20.9393 14.3522 20.8635 14.5439C20.8287 14.63 20.7908 14.7171 20.7539 14.8033C20.6622 14.998 20.5621 15.1857 20.4462 15.3681C20.4462 15.3681 20.4462 15.3712 20.443 15.3712C20.402 15.445 20.3545 15.5158 20.305 15.5875C20.1796 15.767 20.0437 15.9392 19.8962 16.1032C19.8424 16.1647 19.7866 16.2232 19.7265 16.2826C19.5759 16.4374 19.4157 16.5851 19.2461 16.7214C19.1797 16.7737 19.1112 16.826 19.0416 16.8732H19.0385C18.9447 16.9439 18.853 17.0085 18.7529 17.071C18.6739 17.1233 18.5896 17.1725 18.5043 17.2197C18.4252 17.2658 18.3441 17.3089 18.2587 17.3489C18.0796 17.4381 17.8973 17.5221 17.7024 17.5929H17.6992C17.6581 17.6082 17.617 17.6205 17.577 17.6359C17.5233 17.6544 17.4706 17.6728 17.4074 17.6944H17.4042C16.9985 17.8297 16.4169 18.0214 15.8068 18.3792C15.7815 18.3915 15.7562 18.4069 15.7278 18.4253C15.4917 18.5678 15.2504 18.7339 15.0176 18.9379L14.9575 18.8795C15.1841 18.6847 15.4169 18.5186 15.6487 18.3792C15.674 18.3608 15.6993 18.3454 15.7278 18.33C16.3568 17.9568 16.9595 17.7559 17.3779 17.6175C17.4411 17.5959 17.4969 17.5775 17.5475 17.559C17.5633 17.5529 17.5759 17.5498 17.5918 17.5437C17.8088 17.4668 18.0164 17.3796 18.2176 17.2812C18.2998 17.2381 18.3778 17.1982 18.4568 17.152C18.46 17.152 18.46 17.1489 18.46 17.1489C18.5601 17.0936 18.6581 17.0351 18.7519 16.9726C18.8309 16.9234 18.9089 16.8711 18.9847 16.8147C19.0638 16.7594 19.1386 16.7009 19.2144 16.6384C19.3714 16.5123 19.5221 16.3759 19.6644 16.2314C19.7339 16.1606 19.7961 16.092 19.8625 16.0181L19.8656 16.0151C19.9973 15.8633 20.1206 15.7065 20.2334 15.5455C20.2903 15.4686 20.3398 15.3876 20.3904 15.3046C20.4968 15.1344 20.5916 14.9591 20.6759 14.7766C20.7107 14.6997 20.7455 14.6249 20.776 14.5449V14.5418C20.855 14.347 20.9204 14.1471 20.9741 13.9431C20.9962 13.8662 21.012 13.7883 21.0278 13.7114V13.7053C21.0753 13.4982 21.1069 13.2829 21.1216 13.0665C21.1248 13.002 21.1279 12.9374 21.1311 12.8687V12.8656C21.1343 12.8133 21.1343 12.7641 21.1343 12.7077C21.1343 12.5283 21.1248 12.3499 21.1027 12.1736C21.0963 12.1059 21.0869 12.0383 21.0774 11.9696C21.0426 11.7409 20.992 11.5185 20.9235 11.3001C20.9046 11.2294 20.8824 11.1576 20.8571 11.0899C20.7813 10.8767 20.6938 10.6737 20.5895 10.4727C20.5547 10.3989 20.5136 10.3272 20.4736 10.2564C20.3672 10.0709 20.2502 9.89248 20.1185 9.71921C20.0648 9.6454 20.0089 9.57363 19.9489 9.50289C19.8172 9.34501 19.6749 9.1943 19.5242 9.0518C19.4547 8.98721 19.3862 8.92262 19.3103 8.86316L19.3072 8.86008C19.1533 8.72783 18.9932 8.60686 18.8235 8.49613C18.7477 8.44077 18.6697 8.39156 18.5907 8.3444C18.4147 8.23675 18.2324 8.14038 18.0406 8.05734C17.9679 8.02043 17.8963 7.98968 17.8204 7.962L17.8172 7.95892C17.6255 7.88203 17.4274 7.81334 17.223 7.75798C17.0849 7.71799 16.9427 7.68416 16.7983 7.65648L16.8141 7.57959C16.968 7.61035 17.1186 7.64725 17.2672 7.69031C17.4463 7.73645 17.6191 7.79489 17.7888 7.86357H17.792C17.8857 7.90048 17.9774 7.94047 18.0691 7.98045C18.2672 8.06964 18.4589 8.17216 18.6444 8.28289C18.7203 8.32595 18.7919 8.37516 18.8646 8.42129C19.0501 8.54739 19.226 8.6776 19.3925 8.82215L19.3957 8.82523C19.4557 8.87751 19.5147 8.93287 19.5748 8.98926C19.735 9.13792 19.8825 9.29477 20.0216 9.46496C20.0785 9.52955 20.1312 9.59721 20.1817 9.6659C20.3071 9.82994 20.4209 9.9991 20.5242 10.1785V10.1816C20.5748 10.2616 20.6211 10.3456 20.6622 10.4317C20.756 10.6112 20.8382 10.7957 20.9046 10.9874V10.9905C20.9425 11.0858 20.9741 11.1791 21.0015 11.2745C21.0616 11.4631 21.1048 11.6569 21.1395 11.8517C21.1585 11.9532 21.1743 12.0557 21.1838 12.1572C21.2059 12.3397 21.2154 12.5211 21.2154 12.7067L21.2165 12.7077Z"
        fill="#FFAB1A" />
    <path
        d="M14.0381 10.9247L15.4795 10.4227H16.6479V15.5898H15.2899V11.8105L14.3643 12.0393L14.0381 10.9247Z"
        fill="#FFAB1A" />
    <defs>
        <filter color-interpolation-filters="sRGB" filterUnits="userSpaceOnUse" height="30.4514" id="filter0_d_176_2007" width="30.8529"
            x="0.300171" y="0.548218">
            <feFlood flood-opacity="0" result="BackgroundImageFix" />
            <feColorMatrix in="SourceAlpha" result="hardAlpha"
                type="matrix" values="0 0 0 0 0 0 0 0 0 0 0 0 0 0 0 0 0 0 127 0" />
            <feOffset dy="3" />
            <feGaussianBlur stdDeviation="4" />
            <feComposite in2="hardAlpha" operator="out" />
            <feColorMatrix type="matrix"
                values="0 0 0 0 0.956863 0 0 0 0 0.8 0 0 0 0 0.415686 0 0 0 0.4 0" />
            <feBlend in2="BackgroundImageFix" mode="normal" result="effect1_dropShadow_176_2007" />
            <feBlend in="SourceGraphic" in2="effect1_dropShadow_176_2007" mode="normal"
                result="shape" />
        </filter>
    </defs>
</svg>
