<svg fill="none" height="31" viewBox="0 0 31 31" width="31" xmlns="http://www.w3.org/2000/svg">
    <g filter="url(#filter0_d_176_1812)">
        <path
            d="M20.7585 17.8835C23.5803 15.0618 23.5803 10.4867 20.7585 7.66493C17.9368 4.84314 13.3617 4.84314 10.5399 7.66493C7.71814 10.4867 7.71814 15.0618 10.5399 17.8835C13.3617 20.7053 17.9367 20.7053 20.7585 17.8835Z"
            fill="#363636" />
    </g>
    <path
        d="M13.7382 8.43161C13.5598 8.34755 13.4347 8.19377 13.3824 8.01641C13.5506 7.94362 13.7474 7.94054 13.9258 8.02461C14.1042 8.10867 14.2293 8.26246 14.2816 8.43982C14.1134 8.51261 13.9166 8.51568 13.7382 8.43161Z"
        fill="#B1B1B1" />
    <path
        d="M13.7936 7.65505C13.7105 7.83549 13.5578 7.96056 13.3825 8.01387C13.3107 7.84472 13.3076 7.64583 13.3907 7.46539C13.4737 7.28495 13.6265 7.15988 13.8018 7.10657C13.8735 7.27573 13.8766 7.47462 13.7936 7.65505Z"
        fill="#B1B1B1" />
    <path
        d="M13.0299 8.79379C12.8392 8.74253 12.6905 8.61233 12.6085 8.44727C12.7613 8.34577 12.955 8.30887 13.1457 8.36013C13.3364 8.41139 13.4851 8.54159 13.5671 8.70665C13.4143 8.80814 13.2206 8.84505 13.0299 8.79379Z"
        fill="#B1B1B1" />
    <path
        d="M12.9508 8.02031C12.8996 8.21305 12.7704 8.36273 12.6074 8.44577C12.5069 8.29097 12.47 8.09618 12.5213 7.90446C12.5725 7.71173 12.7017 7.56205 12.8647 7.479C12.9652 7.63381 13.0021 7.8286 12.9508 8.02031Z"
        fill="#B1B1B1" />
    <path
        d="M12.3952 9.27677C12.1984 9.25935 12.0302 9.15785 11.9205 9.0092C12.0538 8.8831 12.2373 8.81133 12.4342 8.82876C12.631 8.84619 12.7991 8.94768 12.9088 9.09634C12.7756 9.22244 12.592 9.2942 12.3952 9.27677Z"
        fill="#B1B1B1" />
    <path
        d="M12.1829 8.53011C12.1655 8.72797 12.065 8.89918 11.9184 9.00888C11.7934 8.87458 11.7226 8.68901 11.74 8.49012C11.7575 8.29226 11.8579 8.12105 12.0045 8.01135C12.1296 8.14565 12.2004 8.33122 12.1829 8.53011Z"
        fill="#B1B1B1" />
    <path
        d="M11.852 9.86494C11.6552 9.88237 11.4717 9.81163 11.3384 9.6845C11.4481 9.53687 11.6162 9.43435 11.813 9.41692C12.0099 9.39949 12.1934 9.47023 12.3267 9.59736C12.217 9.74499 12.0488 9.84751 11.852 9.86494Z"
        fill="#B1B1B1" />
    <path
        d="M11.5146 9.16517C11.532 9.36304 11.4613 9.54962 11.3362 9.68393C11.1896 9.5732 11.0881 9.40302 11.0717 9.20516C11.0543 9.00729 11.125 8.8207 11.2501 8.6864C11.3967 8.79712 11.4982 8.96731 11.5146 9.16517Z"
        fill="#B1B1B1" />
    <path
        d="M11.416 10.5398C11.2253 10.591 11.0326 10.5541 10.8788 10.4526C10.9608 10.2876 11.1095 10.1574 11.3001 10.1061C11.4908 10.0548 11.6836 10.0917 11.8374 10.1932C11.7553 10.3583 11.6067 10.4885 11.416 10.5398Z"
        fill="#B1B1B1" />
    <path
        d="M10.964 9.90959C11.0152 10.1023 10.9773 10.2971 10.8778 10.4509C10.7148 10.3679 10.5857 10.2172 10.5344 10.0254C10.4831 9.8327 10.5211 9.63791 10.6205 9.48413C10.7835 9.56717 10.9127 9.71685 10.964 9.90959Z"
        fill="#B1B1B1" />
    <path
        d="M11.1034 11.2795C10.925 11.3636 10.7282 11.3605 10.5601 11.2877C10.6123 11.1114 10.7364 10.9566 10.9158 10.8725C11.0952 10.7884 11.291 10.7915 11.4592 10.8643C11.4069 11.0406 11.2828 11.1954 11.1034 11.2795Z"
        fill="#B1B1B1" />
    <path
        d="M10.5499 10.7385C10.633 10.9189 10.6299 11.1178 10.5581 11.2869C10.3828 11.2336 10.23 11.1086 10.147 10.9281C10.064 10.7477 10.067 10.5488 10.1388 10.3796C10.3141 10.4329 10.4669 10.558 10.5499 10.7385Z"
        fill="#B1B1B1" />
    <path
        d="M10.9219 12.0654C10.76 12.1792 10.5662 12.211 10.3878 12.169C10.4093 11.9854 10.5047 11.8122 10.6667 11.6974C10.8287 11.5836 11.0224 11.5518 11.2008 11.5938C11.1793 11.7773 11.0839 11.9506 10.9219 12.0654Z"
        fill="#B1B1B1" />
    <path
        d="M10.2833 11.6304C10.3961 11.7934 10.4279 11.9892 10.3859 12.1697C10.2044 12.1481 10.0322 12.0518 9.91938 11.8887C9.80661 11.7257 9.77483 11.5299 9.81686 11.3495C9.99832 11.371 10.1706 11.4674 10.2833 11.6304Z"
        fill="#B1B1B1" />
    <path
        d="M10.8769 12.8711C10.7374 13.0115 10.5508 13.0772 10.3684 13.0669C10.3581 12.8824 10.4227 12.6948 10.5621 12.5543C10.7016 12.4139 10.8881 12.3482 11.0706 12.3595C11.0809 12.5441 11.0163 12.7317 10.8769 12.8721V12.8711Z"
        fill="#B1B1B1" />
    <path
        d="M10.1736 12.5536C10.313 12.694 10.3776 12.8816 10.3674 13.0662C10.1849 13.0764 9.99831 13.0118 9.85888 12.8703C9.71945 12.7299 9.65486 12.5423 9.66512 12.3577C9.8476 12.3475 10.0342 12.4121 10.1736 12.5525V12.5536Z"
        fill="#B1B1B1" />
    <path
        d="M10.9713 13.6658C10.8585 13.8289 10.6862 13.9252 10.5048 13.9468C10.4627 13.7673 10.4935 13.5705 10.6073 13.4075C10.7201 13.2445 10.8923 13.1481 11.0738 13.1266C11.1158 13.306 11.085 13.5028 10.9713 13.6658Z"
        fill="#B1B1B1" />
    <path
        d="M10.2238 13.4778C10.3858 13.5916 10.4812 13.7659 10.5027 13.9494C10.3243 13.9914 10.1305 13.9607 9.96855 13.8459C9.80657 13.7321 9.71123 13.5578 9.6897 13.3743C9.86808 13.3322 10.0618 13.363 10.2238 13.4778Z"
        fill="#B1B1B1" />
    <path
        d="M11.2019 14.4323C11.1188 14.6127 10.9661 14.7378 10.7908 14.7911C10.719 14.6219 10.7159 14.423 10.799 14.2426C10.882 14.0622 11.0348 13.9371 11.2101 13.8838C11.2819 14.0529 11.2849 14.2518 11.2019 14.4323Z"
        fill="#B1B1B1" />
    <path
        d="M10.433 14.3767C10.6114 14.4607 10.7365 14.6145 10.7888 14.7919C10.6206 14.8647 10.4238 14.8677 10.2454 14.7837C10.067 14.6996 9.94193 14.5458 9.88965 14.3685C10.0578 14.2957 10.2546 14.2926 10.433 14.3767Z"
        fill="#B1B1B1" />
    <path
        d="M11.5607 15.1468C11.5095 15.3395 11.3803 15.4892 11.2173 15.5722C11.1168 15.4174 11.0799 15.2226 11.1312 15.0309C11.1824 14.8382 11.3116 14.6885 11.4746 14.6055C11.5751 14.7603 11.612 14.9551 11.5607 15.1468Z"
        fill="#B1B1B1" />
    <path
        d="M10.7949 15.2274C10.9856 15.2787 11.1342 15.4089 11.2163 15.574C11.0635 15.6755 10.8697 15.7124 10.6791 15.6611C10.4884 15.6098 10.3397 15.4796 10.2577 15.3146C10.4104 15.2131 10.6042 15.1762 10.7949 15.2274Z"
        fill="#B1B1B1" />
    <path
        d="M12.0394 15.7884C12.022 15.9863 11.9215 16.1575 11.7749 16.2672C11.6498 16.1329 11.5791 15.9473 11.5965 15.7484C11.6139 15.5506 11.7144 15.3794 11.861 15.2697C11.9861 15.404 12.0568 15.5895 12.0394 15.7884Z"
        fill="#B1B1B1" />
    <path
        d="M11.2982 16.0016C11.495 16.019 11.6631 16.1205 11.7728 16.2692C11.6396 16.3953 11.4561 16.4671 11.2592 16.4496C11.0624 16.4322 10.8942 16.3307 10.7845 16.182C10.9178 16.0559 11.1013 15.9842 11.2982 16.0016Z"
        fill="#B1B1B1" />
    <path
        d="M12.6218 16.3381C12.6392 16.536 12.5685 16.7226 12.4434 16.8569C12.2968 16.7462 12.1953 16.576 12.1789 16.3781C12.1615 16.1803 12.2322 15.9937 12.3573 15.8594C12.5039 15.9701 12.6054 16.1403 12.6218 16.3381Z"
        fill="#B1B1B1" />
    <path
        d="M11.9277 16.6783C12.1245 16.6608 12.308 16.7316 12.4413 16.8587C12.3316 17.0063 12.1624 17.1089 11.9666 17.1263C11.7698 17.1437 11.5863 17.073 11.453 16.9459C11.5627 16.7982 11.7308 16.6957 11.9277 16.6783Z"
        fill="#B1B1B1" />
    <path
        d="M13.2903 16.7769C13.3415 16.9696 13.3036 17.1644 13.2041 17.3182C13.0411 17.2352 12.912 17.0855 12.8607 16.8927C12.8094 16.7 12.8474 16.5052 12.9468 16.3514C13.1098 16.4345 13.239 16.5852 13.2903 16.7769Z"
        fill="#B1B1B1" />
    <path
        d="M12.6659 17.2326C12.8566 17.1813 13.0493 17.2182 13.2031 17.3197C13.1211 17.4848 12.9724 17.615 12.7817 17.6662C12.591 17.7175 12.3983 17.6806 12.2445 17.5791C12.3265 17.414 12.4752 17.2838 12.6659 17.2326Z"
        fill="#B1B1B1" />
    <path
        d="M14.0243 17.0921C14.1073 17.2725 14.1042 17.4714 14.0325 17.6406C13.8572 17.5873 13.7044 17.4622 13.6214 17.2818C13.5383 17.1013 13.5414 16.9024 13.6132 16.7333C13.7885 16.7866 13.9412 16.9117 14.0243 17.0921Z"
        fill="#B1B1B1" />
    <path
        d="M13.4881 17.6513C13.6665 17.5672 13.8633 17.5703 14.0314 17.6431C13.9791 17.8194 13.8551 17.9743 13.6757 18.0583C13.4973 18.1424 13.3005 18.1393 13.1323 18.0665C13.1846 17.8902 13.3087 17.7354 13.4881 17.6513Z"
        fill="#B1B1B1" />
    <path
        d="M14.6742 7.77246C14.4886 7.84012 14.2928 7.81962 14.1318 7.73247C14.1995 7.56126 14.3369 7.41876 14.5224 7.35007C14.708 7.28241 14.9038 7.30291 15.0648 7.39005C14.9971 7.56126 14.8597 7.70377 14.6742 7.77246Z"
        fill="#B1B1B1" />
    <path
        d="M16.3967 18.8782L16.3383 18.9366C16.1117 18.7357 15.88 18.5665 15.6504 18.424C15.6227 18.4086 15.5981 18.3933 15.5735 18.3779C14.9799 18.0201 14.414 17.8284 14.0162 17.6931C13.9547 17.6715 13.9004 17.6531 13.8511 17.6346C13.8112 17.6192 13.7712 17.6069 13.7322 17.5885C13.5426 17.5208 13.3621 17.4368 13.1878 17.3476C13.1048 17.3076 13.0259 17.2645 12.949 17.2184C12.8628 17.1692 12.7808 17.12 12.7009 17.0636C12.6065 17.0051 12.5143 16.9406 12.4261 16.8719C12.3615 16.8257 12.298 16.7765 12.2334 16.7232H12.2303C12.0652 16.5848 11.9063 16.4392 11.7597 16.2813C11.7044 16.226 11.65 16.1675 11.5977 16.1081C11.4542 15.941 11.3168 15.7657 11.1969 15.5832C11.1477 15.5124 11.1026 15.4448 11.0595 15.3699C10.9467 15.1874 10.8452 14.9968 10.7571 14.802C10.7202 14.7159 10.6833 14.6287 10.6505 14.5426C10.5766 14.3509 10.5131 14.154 10.4639 13.9531C10.4393 13.8547 10.4177 13.7552 10.3962 13.6568C10.3593 13.462 10.3347 13.2652 10.3193 13.0642C10.3132 12.9597 10.307 12.8572 10.307 12.7526V12.7064C10.307 12.5209 10.3162 12.3394 10.3378 12.1569C10.347 12.0524 10.3624 11.9498 10.3808 11.8484C10.4147 11.6536 10.4608 11.4598 10.5151 11.2712C10.5428 11.1727 10.5766 11.0764 10.6094 10.981C10.6771 10.7924 10.756 10.6109 10.8452 10.4315C10.8883 10.3454 10.9314 10.2613 10.9795 10.1783C11.08 9.99888 11.1907 9.82972 11.3127 9.66569C11.365 9.59495 11.4163 9.52729 11.4716 9.4586C11.6059 9.29149 11.7495 9.13463 11.9033 8.98598C11.9617 8.93062 12.0222 8.87218 12.0868 8.81579C12.2457 8.67431 12.4169 8.54104 12.5942 8.42109C12.6681 8.37188 12.7408 8.32267 12.8177 8.27551C12.8177 8.27551 12.8177 8.27243 12.8208 8.27243C12.9982 8.16479 13.1817 8.06534 13.3713 7.97922C13.4605 7.93617 13.5518 7.89618 13.6441 7.85928C13.8091 7.79469 13.9772 7.73625 14.1515 7.68602C14.2951 7.64296 14.4417 7.60913 14.5893 7.57837L14.6077 7.65526C14.4673 7.68294 14.3299 7.71677 14.1946 7.75676C13.9957 7.81212 13.803 7.87978 13.6164 7.9577C13.5426 7.98845 13.4698 8.01921 13.399 8.05612C13.2124 8.13916 13.0351 8.23553 12.8639 8.34317C12.787 8.38931 12.7111 8.43852 12.6373 8.4949C12.4722 8.60563 12.3133 8.72968 12.1637 8.86193C12.0898 8.92036 12.0232 8.98495 11.9555 9.05057C11.8089 9.19204 11.6716 9.34377 11.5424 9.50166C11.4839 9.57239 11.4296 9.64313 11.3773 9.71797C11.2522 9.88816 11.1354 10.0635 11.0349 10.249C10.9918 10.3228 10.9549 10.3977 10.9191 10.4715C10.8186 10.6724 10.7325 10.8754 10.6587 11.0887C10.634 11.1563 10.6125 11.2271 10.5941 11.2988C10.5295 11.5152 10.4813 11.7346 10.4475 11.9591C10.4352 12.0298 10.4259 12.1006 10.4198 12.1723C10.3983 12.3487 10.389 12.527 10.389 12.7064C10.389 12.7557 10.389 12.8049 10.3921 12.8551C10.3921 12.9258 10.3983 12.9976 10.4013 13.0653C10.4167 13.2847 10.4475 13.501 10.4936 13.7101C10.509 13.787 10.5244 13.8649 10.5459 13.9418C10.5951 14.1428 10.6587 14.3396 10.7355 14.5313C10.7663 14.6144 10.8001 14.6953 10.836 14.7753C10.9191 14.9609 11.0134 15.1393 11.1169 15.3125C11.1631 15.3925 11.2112 15.4673 11.2635 15.5442C11.3763 15.7083 11.4962 15.8682 11.6275 16.0199C11.689 16.0907 11.7525 16.1624 11.8171 16.2301C11.9545 16.3757 12.1011 16.511 12.2549 16.6371C12.3256 16.6955 12.3984 16.754 12.4753 16.8134C12.5491 16.8657 12.625 16.918 12.7019 16.9713C12.7962 17.0359 12.8946 17.0943 12.9982 17.1569C13.072 17.1969 13.1479 17.2399 13.2247 17.2799C13.4206 17.3783 13.6256 17.4685 13.8399 17.5454C13.8522 17.5485 13.8645 17.5546 13.8768 17.5577C13.9291 17.5762 13.9803 17.5946 14.0418 17.6162H14.0449C14.4519 17.7546 15.0394 17.9555 15.6504 18.3287C15.675 18.3441 15.6996 18.3594 15.7273 18.3779C15.9508 18.5163 16.1773 18.6834 16.3967 18.8782Z"
        fill="#B1B1B1" />
    <path
        d="M17.5602 8.43161C17.7386 8.34755 17.8637 8.19377 17.916 8.01641C17.7478 7.94362 17.551 7.94054 17.3726 8.02461C17.1942 8.10867 17.0691 8.26246 17.0168 8.43982C17.185 8.51261 17.3818 8.51568 17.5602 8.43161Z"
        fill="#B1B1B1" />
    <path
        d="M17.5059 7.65505C17.5889 7.83549 17.7417 7.96056 17.917 8.01387C17.9888 7.84472 17.9918 7.64583 17.9088 7.46539C17.8258 7.28495 17.673 7.15988 17.4977 7.10657C17.4259 7.27573 17.4229 7.47462 17.5059 7.65505Z"
        fill="#B1B1B1" />
    <path
        d="M18.2688 8.79379C18.4595 8.74253 18.6081 8.61233 18.6901 8.44727C18.5374 8.34577 18.3436 8.30887 18.1529 8.36013C17.9622 8.41139 17.8136 8.54159 17.7316 8.70665C17.8843 8.80814 18.0781 8.84505 18.2688 8.79379Z"
        fill="#B1B1B1" />
    <path
        d="M18.3487 8.02031C18.3999 8.21305 18.5291 8.36273 18.6921 8.44577C18.7926 8.29097 18.8295 8.09618 18.7782 7.90446C18.727 7.71173 18.5978 7.56205 18.4348 7.479C18.3343 7.63381 18.2974 7.8286 18.3487 8.02031Z"
        fill="#B1B1B1" />
    <path
        d="M18.9044 9.27677C19.1012 9.25935 19.2693 9.15785 19.379 9.0092C19.2458 8.8831 19.0623 8.81133 18.8654 8.82876C18.6686 8.84619 18.5004 8.94768 18.3907 9.09634C18.524 9.22244 18.7075 9.2942 18.9044 9.27677Z"
        fill="#B1B1B1" />
    <path
        d="M19.1155 8.53011C19.133 8.72797 19.2334 8.89918 19.38 9.00888C19.5051 8.87458 19.5759 8.68901 19.5584 8.49012C19.541 8.29226 19.4405 8.12105 19.2939 8.01135C19.1688 8.14565 19.0981 8.33122 19.1155 8.53011Z"
        fill="#B1B1B1" />
    <path
        d="M19.4476 9.86494C19.6444 9.88237 19.8279 9.81163 19.9612 9.6845C19.8515 9.53687 19.6834 9.43435 19.4865 9.41692C19.2897 9.39949 19.1062 9.47023 18.9729 9.59736C19.0826 9.74499 19.2507 9.84751 19.4476 9.86494Z"
        fill="#B1B1B1" />
    <path
        d="M19.7848 9.16517C19.7674 9.36304 19.8382 9.54962 19.9632 9.68393C20.1098 9.5732 20.2113 9.40302 20.2277 9.20516C20.2452 9.00729 20.1744 8.8207 20.0493 8.6864C19.9027 8.79712 19.8012 8.96731 19.7848 9.16517Z"
        fill="#B1B1B1" />
    <path
        d="M19.8823 10.5398C20.073 10.591 20.2657 10.5541 20.4195 10.4526C20.3375 10.2876 20.1888 10.1574 19.9981 10.1061C19.8075 10.0548 19.6147 10.0917 19.4609 10.1932C19.543 10.3583 19.6916 10.4885 19.8823 10.5398Z"
        fill="#B1B1B1" />
    <path
        d="M20.3344 9.90959C20.2832 10.1023 20.3211 10.2971 20.4206 10.4509C20.5836 10.3679 20.7127 10.2172 20.764 10.0254C20.8153 9.8327 20.7773 9.63791 20.6779 9.48413C20.5149 9.56717 20.3857 9.71685 20.3344 9.90959Z"
        fill="#B1B1B1" />
    <path
        d="M20.195 11.2795C20.3734 11.3636 20.5702 11.3605 20.7383 11.2877C20.6861 11.1114 20.562 10.9566 20.3826 10.8725C20.2042 10.7884 20.0074 10.7915 19.8392 10.8643C19.8915 11.0406 20.0156 11.1954 20.195 11.2795Z"
        fill="#B1B1B1" />
    <path
        d="M20.7497 10.7385C20.6666 10.9189 20.6697 11.1178 20.7415 11.2869C20.9168 11.2336 21.0695 11.1086 21.1526 10.9281C21.2356 10.7477 21.2325 10.5488 21.1608 10.3796C20.9855 10.4329 20.8327 10.558 20.7497 10.7385Z"
        fill="#B1B1B1" />
    <path
        d="M20.3775 12.0654C20.5395 12.1792 20.7332 12.211 20.9116 12.169C20.8901 11.9854 20.7947 11.8122 20.6328 11.6974C20.4708 11.5836 20.277 11.5518 20.0986 11.5938C20.1202 11.7773 20.2155 11.9506 20.3775 12.0654Z"
        fill="#B1B1B1" />
    <path
        d="M21.0152 11.6304C20.9024 11.7934 20.8707 11.9892 20.9127 12.1697C21.0941 12.1481 21.2664 12.0518 21.3792 11.8887C21.4919 11.7257 21.5237 11.5299 21.4817 11.3495C21.3002 11.371 21.128 11.4674 21.0152 11.6304Z"
        fill="#B1B1B1" />
    <path
        d="M20.4216 12.8711C20.5611 13.0115 20.7476 13.0772 20.9301 13.0669C20.9404 12.8824 20.8758 12.6948 20.7364 12.5543C20.5969 12.4139 20.4103 12.3482 20.2279 12.3595C20.2176 12.5441 20.2822 12.7317 20.4216 12.8721V12.8711Z"
        fill="#B1B1B1" />
    <path
        d="M21.126 12.5536C20.9865 12.694 20.922 12.8816 20.9322 13.0662C21.1147 13.0764 21.3013 13.0118 21.4407 12.8703C21.5801 12.7299 21.6447 12.5423 21.6345 12.3577C21.452 12.3475 21.2654 12.4121 21.126 12.5525V12.5536Z"
        fill="#B1B1B1" />
    <path
        d="M20.3282 13.6658C20.441 13.8289 20.6133 13.9252 20.7947 13.9468C20.8368 13.7673 20.806 13.5705 20.6922 13.4075C20.5794 13.2445 20.4072 13.1481 20.2257 13.1266C20.1837 13.306 20.2145 13.5028 20.3282 13.6658Z"
        fill="#B1B1B1" />
    <path
        d="M21.0756 13.4778C20.9136 13.5916 20.8183 13.7659 20.7968 13.9494C20.9751 13.9914 21.1689 13.9607 21.3309 13.8459C21.4929 13.7321 21.5882 13.5578 21.6097 13.3743C21.4314 13.3322 21.2376 13.363 21.0756 13.4778Z"
        fill="#B1B1B1" />
    <path
        d="M20.0976 14.4323C20.1806 14.6127 20.3334 14.7378 20.5087 14.7911C20.5804 14.6219 20.5835 14.423 20.5005 14.2426C20.4174 14.0622 20.2647 13.9371 20.0894 13.8838C20.0176 14.0529 20.0145 14.2518 20.0976 14.4323Z"
        fill="#B1B1B1" />
    <path
        d="M20.8664 14.3767C20.688 14.4607 20.5629 14.6145 20.5106 14.7919C20.6788 14.8647 20.8756 14.8677 21.054 14.7837C21.2324 14.6996 21.3574 14.5458 21.4097 14.3685C21.2416 14.2957 21.0448 14.2926 20.8664 14.3767Z"
        fill="#B1B1B1" />
    <path
        d="M19.7377 15.1468C19.789 15.3395 19.9182 15.4892 20.0812 15.5722C20.1816 15.4174 20.2185 15.2226 20.1673 15.0309C20.116 14.8382 19.9868 14.6885 19.8238 14.6055C19.7234 14.7603 19.6865 14.9551 19.7377 15.1468Z"
        fill="#B1B1B1" />
    <path
        d="M20.5046 15.2274C20.3139 15.2787 20.1653 15.4089 20.0833 15.574C20.236 15.6755 20.4298 15.7124 20.6205 15.6611C20.8111 15.6098 20.9598 15.4796 21.0418 15.3146C20.8891 15.2131 20.6953 15.1762 20.5046 15.2274Z"
        fill="#B1B1B1" />
    <path
        d="M19.2601 15.7884C19.2775 15.9863 19.378 16.1575 19.5246 16.2672C19.6496 16.1329 19.7204 15.9473 19.703 15.7484C19.6855 15.5506 19.5851 15.3794 19.4385 15.2697C19.3134 15.404 19.2426 15.5895 19.2601 15.7884Z"
        fill="#B1B1B1" />
    <path
        d="M20.0013 16.0016C19.8044 16.019 19.6363 16.1205 19.5266 16.2692C19.6599 16.3953 19.8434 16.4671 20.0402 16.4496C20.2371 16.4322 20.4052 16.3307 20.5149 16.182C20.3816 16.0559 20.1981 15.9842 20.0013 16.0016Z"
        fill="#B1B1B1" />
    <path
        d="M18.6777 16.3381C18.6602 16.536 18.731 16.7226 18.8561 16.8569C19.0027 16.7462 19.1042 16.576 19.1206 16.3781C19.138 16.1803 19.0672 15.9937 18.9422 15.8594C18.7956 15.9701 18.6941 16.1403 18.6777 16.3381Z"
        fill="#B1B1B1" />
    <path
        d="M19.3707 16.6783C19.1738 16.6608 18.9903 16.7316 18.8571 16.8587C18.9668 17.0063 19.1349 17.1089 19.3317 17.1263C19.5286 17.1437 19.7121 17.073 19.8454 16.9459C19.7357 16.7982 19.5665 16.6957 19.3707 16.6783Z"
        fill="#B1B1B1" />
    <path
        d="M18.0093 16.7769C17.958 16.9696 17.9959 17.1644 18.0954 17.3182C18.2584 17.2352 18.3876 17.0855 18.4388 16.8927C18.4901 16.7 18.4521 16.5052 18.3527 16.3514C18.1897 16.4345 18.0605 16.5852 18.0093 16.7769Z"
        fill="#B1B1B1" />
    <path
        d="M18.6336 17.2326C18.443 17.1813 18.2502 17.2182 18.0964 17.3197C18.1785 17.4848 18.3271 17.615 18.5178 17.6662C18.7085 17.7175 18.9012 17.6806 19.055 17.5791C18.973 17.414 18.8243 17.2838 18.6336 17.2326Z"
        fill="#B1B1B1" />
    <path
        d="M17.2742 17.0921C17.1912 17.2725 17.1942 17.4714 17.266 17.6406C17.4413 17.5873 17.5941 17.4622 17.6771 17.2818C17.7602 17.1013 17.7571 16.9024 17.6853 16.7333C17.51 16.7866 17.3572 16.9117 17.2742 17.0921Z"
        fill="#B1B1B1" />
    <path
        d="M17.8114 17.6513C17.633 17.5672 17.4362 17.5703 17.2681 17.6431C17.3204 17.8195 17.4444 17.9743 17.6238 18.0583C17.8022 18.1424 17.999 18.1393 18.1672 18.0665C18.1149 17.8902 17.9908 17.7354 17.8114 17.6513Z"
        fill="#B1B1B1" />
    <path
        d="M16.6252 7.77246C16.8108 7.84012 17.0066 7.81962 17.1676 7.73247C17.0999 7.56126 16.9625 7.41876 16.777 7.35007C16.5914 7.28241 16.3956 7.30291 16.2346 7.39005C16.3023 7.56126 16.4397 7.70377 16.6252 7.77246Z"
        fill="#B1B1B1" />
    <path
        d="M20.9906 12.708V12.7603C20.9906 12.8618 20.9845 12.9643 20.9783 13.0658C20.9629 13.2668 20.9383 13.4667 20.8983 13.6615V13.6646C20.8799 13.763 20.8584 13.8593 20.8337 13.9547C20.7845 14.1556 20.721 14.3525 20.6472 14.5442C20.6133 14.6303 20.5764 14.7174 20.5405 14.8036C20.4513 14.9983 20.3539 15.186 20.2412 15.3684C20.2412 15.3684 20.2412 15.3715 20.2381 15.3715C20.1981 15.4453 20.152 15.5161 20.1038 15.5878C19.9818 15.7673 19.8495 15.9395 19.706 16.1035C19.6537 16.165 19.5994 16.2235 19.541 16.2829C19.3944 16.4377 19.2385 16.5854 19.0735 16.7217C19.0089 16.774 18.9422 16.8263 18.8746 16.8734H18.8715C18.7803 16.9442 18.6911 17.0088 18.5937 17.0713C18.5168 17.1236 18.4348 17.1728 18.3517 17.22C18.2748 17.2661 18.1959 17.3092 18.1128 17.3491C17.9386 17.4383 17.7612 17.5224 17.5715 17.5931H17.5685C17.5285 17.6085 17.4885 17.6208 17.4495 17.6362C17.3973 17.6547 17.346 17.6731 17.2845 17.6946H17.2814C16.8867 17.83 16.3208 18.0217 15.7272 18.3795C15.7026 18.3918 15.678 18.4072 15.6503 18.4256C15.4207 18.5681 15.1859 18.7342 14.9593 18.9382L14.9009 18.8798C15.1213 18.685 15.3479 18.5189 15.5734 18.3795C15.598 18.361 15.6226 18.3456 15.6503 18.3303C16.2624 17.9571 16.8488 17.7562 17.2558 17.6177C17.3173 17.5962 17.3716 17.5778 17.4208 17.5593C17.4362 17.5532 17.4485 17.5501 17.4639 17.5439C17.6751 17.467 17.8771 17.3799 18.0729 17.2815C18.1528 17.2384 18.2287 17.1984 18.3056 17.1523C18.3087 17.1523 18.3087 17.1492 18.3087 17.1492C18.4061 17.0939 18.5014 17.0354 18.5926 16.9729C18.6695 16.9237 18.7454 16.8714 18.8192 16.815C18.8961 16.7597 18.9689 16.7012 19.0427 16.6387C19.1955 16.5126 19.3421 16.3762 19.4805 16.2317C19.5481 16.1609 19.6086 16.0922 19.6732 16.0184L19.6763 16.0154C19.8044 15.8636 19.9244 15.7068 20.0341 15.5458C20.0894 15.4689 20.1376 15.3879 20.1868 15.3049C20.2904 15.1347 20.3827 14.9594 20.4647 14.7769C20.4985 14.7 20.5323 14.6252 20.5621 14.5452V14.5421C20.639 14.3473 20.7025 14.1474 20.7548 13.9434C20.7763 13.8665 20.7917 13.7886 20.8071 13.7117V13.7056C20.8532 13.4985 20.884 13.2832 20.8983 13.0669C20.9014 13.0023 20.9045 12.9377 20.9076 12.869V12.8659C20.9106 12.8136 20.9106 12.7644 20.9106 12.708C20.9106 12.5286 20.9014 12.3502 20.8799 12.1739C20.8737 12.1062 20.8645 12.0386 20.8553 11.9699C20.8214 11.7413 20.7722 11.5188 20.7056 11.3004C20.6871 11.2297 20.6656 11.1579 20.641 11.0903C20.5672 10.877 20.4821 10.674 20.3806 10.4731C20.3468 10.3993 20.3068 10.3275 20.2678 10.2568C20.1643 10.0712 20.0505 9.89282 19.9223 9.71956C19.8701 9.64575 19.8157 9.57398 19.7573 9.50324C19.6291 9.34536 19.4907 9.19466 19.3441 9.05215C19.2765 8.98756 19.2098 8.92298 19.136 8.86351L19.1329 8.86044C18.9832 8.72819 18.8274 8.60721 18.6624 8.49649C18.5885 8.44113 18.5127 8.39192 18.4358 8.34476C18.2646 8.23711 18.0872 8.14074 17.9006 8.0577C17.8299 8.02079 17.7602 7.99004 17.6864 7.96236L17.6833 7.95928C17.4967 7.88239 17.304 7.8137 17.1051 7.75834C16.9708 7.71836 16.8324 7.68453 16.6919 7.65685L16.7073 7.57996C16.857 7.61071 17.0036 7.64762 17.1481 7.69068C17.3224 7.73681 17.4905 7.79525 17.6556 7.86394H17.6587C17.7499 7.90085 17.8391 7.94083 17.9283 7.98081C18.1211 8.07 18.3076 8.17253 18.4881 8.28325C18.5619 8.32631 18.6316 8.37552 18.7023 8.42165C18.8828 8.54775 19.054 8.67795 19.216 8.82251L19.219 8.82558C19.2775 8.87787 19.3349 8.93323 19.3933 8.98961C19.5492 9.13827 19.6927 9.29513 19.828 9.46531C19.8834 9.5299 19.9346 9.59756 19.9839 9.66625C20.1059 9.83028 20.2166 9.99944 20.317 10.1789V10.1819C20.3663 10.2619 20.4114 10.346 20.4513 10.4321C20.5426 10.6115 20.6226 10.796 20.6871 10.9877V10.9908C20.724 11.0862 20.7548 11.1795 20.7815 11.2748C20.8399 11.4634 20.8819 11.6572 20.9158 11.852C20.9342 11.9535 20.9496 12.056 20.9588 12.1575C20.9804 12.34 20.9896 12.5214 20.9896 12.707L20.9906 12.708Z"
        fill="#B1B1B1" />
    <path
        d="M17.5363 15.2834H13.9193V14.3238L15.6318 12.5153C15.8188 12.3136 15.9468 12.1585 16.0157 12.0503C16.0895 11.9371 16.1264 11.8264 16.1264 11.7181C16.1264 11.5853 16.0846 11.4819 16.0009 11.4081C15.9222 11.3294 15.8115 11.29 15.6687 11.29C15.3587 11.29 15.1274 11.4696 14.9749 11.8288L13.8381 11.194C14.0005 10.8151 14.2417 10.5223 14.5615 10.3156C14.8863 10.109 15.2505 10.0056 15.654 10.0056C16.1461 10.0056 16.5668 10.1532 16.9162 10.4485C17.2705 10.7388 17.4477 11.1374 17.4477 11.6443C17.4477 11.9297 17.3812 12.2004 17.2484 12.4563C17.1155 12.7072 16.9064 12.9804 16.621 13.2756L15.9197 14.0064H17.5363V15.2834Z"
        fill="#B1B1B1" />
    <defs>
        <filter color-interpolation-filters="sRGB" filterUnits="userSpaceOnUse" height="30.4513" id="filter0_d_176_1812" width="30.4513"
            x="0.423584" y="0.548584">
            <feFlood flood-opacity="0" result="BackgroundImageFix" />
            <feColorMatrix in="SourceAlpha" result="hardAlpha"
                type="matrix" values="0 0 0 0 0 0 0 0 0 0 0 0 0 0 0 0 0 0 127 0" />
            <feOffset dy="3" />
            <feGaussianBlur stdDeviation="4" />
            <feComposite in2="hardAlpha" operator="out" />
            <feColorMatrix type="matrix"
                values="0 0 0 0 0.839216 0 0 0 0 0.839216 0 0 0 0 0.839216 0 0 0 0.4 0" />
            <feBlend in2="BackgroundImageFix" mode="normal" result="effect1_dropShadow_176_1812" />
            <feBlend in="SourceGraphic" in2="effect1_dropShadow_176_1812" mode="normal"
                result="shape" />
        </filter>
    </defs>
</svg>
