<svg fill="none" height="18" viewBox="0 0 18 18" width="18" xmlns="http://www.w3.org/2000/svg">
    <path clip-rule="evenodd"
        d="M9 16.5C5.46447 16.5 3.6967 16.5 2.59835 15.4017C1.5 14.3033 1.5 12.5355 1.5 9C1.5 5.46447 1.5 3.6967 2.59835 2.59835C3.6967 1.5 5.46447 1.5 9 1.5C12.5355 1.5 14.3033 1.5 15.4017 2.59835C16.5 3.6967 16.5 5.46447 16.5 9C16.5 12.5355 16.5 14.3033 15.4017 15.4017C14.3033 16.5 12.5355 16.5 9 16.5ZM12.0227 6.72725C12.2424 6.94692 12.2424 7.30308 12.0227 7.52275L8.27275 11.2727C8.05308 11.4924 7.69692 11.4924 7.47725 11.2727L5.97725 9.77275C5.75758 9.55308 5.75758 9.19692 5.97725 8.97725C6.19692 8.75758 6.55308 8.75758 6.77275 8.97725L7.875 10.0795L11.2273 6.72725C11.4469 6.50758 11.8031 6.50758 12.0227 6.72725Z"
        fill="url(#paint0_linear_80_4118)" fill-rule="evenodd" />
    <defs>
        <linearGradient gradientUnits="userSpaceOnUse" id="paint0_linear_80_4118" x1="1.5"
            x2="17.5339" y1="16.5" y2="15.2987">
            <stop stop-color="#17A67B" />
            <stop offset="1" stop-color="#13D2C8" />
        </linearGradient>
    </defs>
</svg>
